<?xml version="1.0" encoding="UTF-8"?><svg id="a" xmlns="http://www.w3.org/2000/svg" viewBox="0 0 300 300"><defs><style>.b{fill:#fff;}</style></defs><path class="b" d="M206.98,120.7c0,17.08,13.85,30.93,30.93,30.93,7.66,0,14.53,3.1,19.56,8.12,5.01,4.98,8.12,11.93,8.12,19.55s-3.11,14.58-8.12,19.56c-2.51,2.51-5.49,4.54-8.79,5.94-3.31,1.4-6.94,2.18-10.77,2.18-8.55,0-16.27,3.48-21.86,9.07-2.8,2.79-5.07,6.12-6.63,9.82-1.57,3.71-2.44,7.78-2.44,12.04,0,7.63-3.11,14.58-8.12,19.56-2.51,2.51-5.48,4.54-8.79,5.94-3.31,1.41-6.94,2.18-10.77,2.18-7.65,0-14.56-3.1-19.57-8.11s-8.11-11.92-8.11-19.57,3.11-14.57,8.12-19.55c2.51-2.51,5.48-4.54,8.79-5.94,3.3-1.4,6.93-2.18,10.75-2.18h.02c8.55,0,16.27-3.48,21.86-9.08,5.6-5.57,9.07-13.33,9.07-21.86s-3.47-16.29-9.07-21.86c-2.8-2.8-6.12-5.06-9.82-6.63s-7.76-2.44-12.04-2.44c-7.65,0-14.56-3.09-19.57-8.11-5.01-5.01-8.11-11.92-8.11-19.56s3.11-14.58,8.12-19.56c2.51-2.51,5.48-4.54,8.79-5.94,3.3-1.4,6.93-2.18,10.75-2.18h.02c7.66,0,14.54,3.1,19.56,8.12,5.01,4.98,8.12,11.93,8.12,19.56Z"/><polygon class="b" points="201.16 98.83 201.16 98.84 201.15 98.83 201.16 98.83"/><path class="b" d="M201.15,98.83c-5.59-5.59-13.3-9.07-21.85-9.07-7.65,0-14.56-3.09-19.57-8.1-5.01-5.02-8.11-11.93-8.11-19.57s3.11-14.58,8.12-19.56c2.51-2.51,5.48-4.54,8.79-5.94,3.31-1.41,6.94-2.18,10.77-2.18,7.66,0,14.54,3.1,19.56,8.12,5.01,4.98,8.12,11.93,8.12,19.56,0,17.08,13.85,30.93,30.93,30.93,7.66,0,14.53,3.1,19.56,8.12,5.01,4.98,8.12,11.93,8.12,19.56s-3.11,14.57-8.12,19.55c-2.51,2.51-5.49,4.54-8.79,5.94s-6.93,2.18-10.75,2.18h-.02c-7.65,0-14.56-3.09-19.57-8.11-5.01-5.01-8.11-11.92-8.11-19.56,0-8.53-3.47-16.29-9.07-21.86h-.01Z"/><path class="b" d="M198.86,159.75c5.01,4.98,8.12,11.93,8.12,19.55s-3.11,14.58-8.12,19.56c-2.51,2.51-5.48,4.54-8.79,5.94s-6.94,2.18-10.77,2.18c-7.65,0-14.56-3.09-19.57-8.11-5.01-5.01-8.11-11.92-8.11-19.57s3.11-14.57,8.12-19.55c2.51-2.51,5.48-4.54,8.79-5.94,3.31-1.41,6.94-2.18,10.77-2.18,7.66,0,14.54,3.1,19.56,8.12Z"/><path class="b" d="M140.25,101.14c5.01,4.98,8.12,11.93,8.12,19.56s-3.11,14.57-8.12,19.55h-.01c-5.01,5.02-11.88,8.11-19.53,8.12h-.02c-7.65,0-14.55-3.09-19.57-8.11s-8.1-11.92-8.11-19.56c0-7.63,3.11-14.58,8.12-19.56,2.51-2.51,5.49-4.54,8.79-5.94,3.31-1.4,6.94-2.18,10.77-2.18,7.66,0,14.54,3.1,19.56,8.12Z"/><path class="b" d="M120.69,151.63c7.66,0,14.54,3.1,19.56,8.12,5.01,4.98,8.12,11.93,8.12,19.55s-3.11,14.58-8.12,19.56h-.01c-5.01,5.02-11.88,8.11-19.53,8.12h-.02c-7.65,0-14.55-3.09-19.57-8.11s-8.1-11.92-8.11-19.57c0-8.52-3.47-16.29-9.07-21.86-2.8-2.8-6.12-5.06-9.82-6.63s-7.76-2.44-12.04-2.44c-7.64,0-14.55-3.09-19.57-8.11s-8.1-11.92-8.1-19.56,3.1-14.58,8.11-19.56c2.52-2.51,5.49-4.54,8.79-5.94,3.31-1.4,6.94-2.18,10.77-2.18,8.55,0,16.27-3.48,21.86-9.07,2.8-2.79,5.07-6.12,6.64-9.82,1.56-3.71,2.43-7.78,2.43-12.04,0-7.63,3.11-14.58,8.12-19.56,2.51-2.51,5.49-4.54,8.79-5.94,3.31-1.41,6.94-2.18,10.77-2.18,7.66,0,14.54,3.1,19.56,8.12,5.01,4.98,8.12,11.93,8.12,19.56s-3.11,14.57-8.12,19.55c-2.51,2.51-5.49,4.54-8.79,5.94s-6.93,2.18-10.75,2.18h-.02c-8.55,0-16.27,3.48-21.86,9.08-5.6,5.57-9.07,13.33-9.07,21.86,0,17.08,13.85,30.93,30.93,30.93Z"/><path class="b" d="M89.76,179.3c0,17.09,13.85,30.94,30.93,30.94,7.66,0,14.54,3.1,19.56,8.12,5.01,4.98,8.12,11.92,8.12,19.55s-3.11,14.58-8.12,19.56c-2.51,2.51-5.49,4.54-8.79,5.94-3.3,1.41-6.94,2.18-10.77,2.18-7.65,0-14.55-3.1-19.57-8.11-5.01-5.01-8.1-11.92-8.11-19.57,0-8.52-3.47-16.29-9.07-21.86-2.8-2.79-6.12-5.06-9.82-6.63s-7.76-2.44-12.04-2.44c-7.64,0-14.55-3.09-19.57-8.11s-8.1-11.92-8.1-19.57,3.1-14.57,8.11-19.55c5.03-5.02,11.89-8.11,19.54-8.12h.02c7.66,0,14.54,3.1,19.56,8.12,2.5,2.49,4.54,5.47,5.94,8.79,1.4,3.31,2.18,6.95,2.18,10.76Z"/></svg>