<svg width="286" height="162" viewBox="0 0 286 162" fill="none" xmlns="http://www.w3.org/2000/svg">
<path fill-rule="evenodd" clip-rule="evenodd" d="M42.5693 23.2687C68.4204 8.8659 103.934 0.0500488 143 0.0500488C182.066 0.0500488 217.579 8.8659 243.431 23.2687C269.184 37.6168 285.95 57.9074 285.95 81.0001C285.95 104.093 269.184 124.383 243.431 138.731C217.579 153.134 182.066 161.95 143 161.95C103.934 161.95 68.4204 153.134 42.5693 138.731C16.8163 124.383 0.0500031 104.093 0.0500031 81.0001C0.0500031 57.9074 16.8163 37.6168 42.5693 23.2687ZM143 158.999C220.293 158.999 283 124.128 283 80.9985H214.85C214.849 38.2057 182.721 3.54366 143 3.00633V3C142.795 3 142.589 3.00025 142.384 3.00074C142.277 3.00025 142.17 3 142.064 3V3.00171C142.064 3.00171 142.063 3.00171 142.064 3.00171L142.063 81L69.2768 81C69.2768 38.2338 101.364 3.58796 141.05 3.0074C64.6553 3.58796 3.00037 38.2338 3.00037 81L69.2768 81C69.2775 124.027 101.817 158.999 142.063 158.999V81H214.85C214.849 123.793 182.721 158.455 143 158.992V158.999Z" fill="#11191F"/>
</svg>
