<svg width="280" height="156" viewBox="0 0 280 156" fill="none" xmlns="http://www.w3.org/2000/svg">
<g clip-path="url(#clip0)">
<path fill-rule="evenodd" clip-rule="evenodd" d="M235.648 20.3624C209.883 7.23401 175.931 0 140.034 0C104.136 0 70.1845 7.23401 44.4189 20.3624C15.768 34.9644 0 55.4607 0 77.9665C0 100.472 15.768 120.969 44.4189 135.571C70.1845 148.699 104.136 155.933 140.034 155.933C175.931 155.933 209.883 148.699 235.648 135.571C264.299 120.969 280.067 100.539 280.067 77.9665C280.067 55.3937 264.232 34.9644 235.648 20.3624ZM140.034 142.604C174.992 142.604 203.307 128.136 203.307 110.319C203.307 92.5017 174.992 78.0337 140.034 78.0337C105.076 78.0337 76.7601 63.5657 76.7601 45.7486C76.7601 27.9315 105.076 13.3965 140.034 13.3965C209.95 13.3965 266.648 42.3325 266.648 77.9667C266.648 113.601 209.95 142.604 140.034 142.604ZM156.674 110.319C156.674 115.017 149.224 118.825 140.033 118.825C130.843 118.825 123.393 115.017 123.393 110.319C123.393 105.621 130.843 101.812 140.033 101.812C149.224 101.812 156.674 105.621 156.674 110.319Z" fill="#11191F"/>
<path d="M140.033 54.1881C149.224 54.1881 156.674 50.3796 156.674 45.6815C156.674 40.9834 149.224 37.1748 140.033 37.1748C130.843 37.1748 123.393 40.9834 123.393 45.6815C123.393 50.3796 130.843 54.1881 140.033 54.1881Z" fill="#11191F"/>
</g>
<defs>
<clipPath id="clip0">
<rect width="280" height="156" fill="white"/>
</clipPath>
</defs>
</svg>
