<svg width="280" height="157" viewBox="0 0 280 157" fill="none" xmlns="http://www.w3.org/2000/svg">
<g clip-path="url(#clip0)">
<path d="M140 155.887C216.772 155.887 279.007 121.212 279.007 78.4397C279.007 35.6671 216.772 0.99292 140 0.99292C63.2285 0.99292 0.992905 35.6671 0.992905 78.4397C0.992905 121.212 63.2285 155.887 140 155.887Z" stroke="#11191F" stroke-width="1.5" stroke-miterlimit="10"/>
<path d="M140 135.799C201.515 135.799 251.381 108.006 251.381 73.7203C251.381 39.4353 201.515 11.6418 140 11.6418C78.4858 11.6418 28.6186 39.4353 28.6186 73.7203C28.6186 108.006 78.4858 135.799 140 135.799Z" stroke="#11191F" stroke-width="1.5" stroke-miterlimit="10"/>
<path d="M140.001 119.099C185.529 119.099 222.437 98.5658 222.437 73.2364C222.437 47.9069 185.529 27.3733 140.001 27.3733C94.4723 27.3733 57.5642 47.9069 57.5642 73.2364C57.5642 98.5658 94.4723 119.099 140.001 119.099Z" stroke="#11191F" stroke-width="1.5" stroke-miterlimit="10"/>
<path d="M140.001 119.099C185.529 119.099 222.437 98.5658 222.437 73.2364C222.437 47.9069 185.529 27.3733 140.001 27.3733C94.4723 27.3733 57.5642 47.9069 57.5642 73.2364C57.5642 98.5658 94.4723 119.099 140.001 119.099Z" stroke="#11191F" stroke-width="1.5" stroke-miterlimit="10"/>
<path d="M140 119.099C171.923 119.099 197.802 104.688 197.802 86.9106C197.802 69.1331 171.923 54.7217 140 54.7217C108.077 54.7217 82.1977 69.1331 82.1977 86.9106C82.1977 104.688 108.077 119.099 140 119.099Z" stroke="#11191F" stroke-width="1.5" stroke-miterlimit="10"/>
<path d="M140 119.099C155.986 119.099 168.945 111.894 168.945 103.005C168.945 94.1161 155.986 86.9104 140 86.9104C124.014 86.9104 111.055 94.1161 111.055 103.005C111.055 111.894 124.014 119.099 140 119.099Z" stroke="#11191F" stroke-width="1.5" stroke-miterlimit="10"/>
<path d="M2.57718 66.8228C2.57718 66.8228 62.1391 53.0276 109.999 114.38" stroke="#11191F" stroke-width="1.5" stroke-miterlimit="10"/>
<path d="M277.688 66.8228C277.688 66.8228 218.126 53.0276 170.265 114.38" stroke="#11191F" stroke-width="1.5" stroke-miterlimit="10"/>
<path d="M162.611 115.71C202.113 49.76 256.484 36.3279 256.484 36.3279" stroke="#11191F" stroke-width="1.5" stroke-miterlimit="10"/>
<path d="M64.3379 13.457C64.3379 13.457 100.85 42.2576 119.677 114.38" stroke="#11191F" stroke-width="1.5" stroke-miterlimit="10"/>
<path d="M218.917 14.6672C218.917 14.6672 179.943 36.3281 160.587 117.042" stroke="#11191F" stroke-width="1.5" stroke-miterlimit="10"/>
<path d="M111.142 0.99292C111.142 0.99292 125.307 36.691 133.841 119.099" stroke="#11191F" stroke-width="1.5" stroke-miterlimit="10"/>
<path d="M143.519 119.099C143.519 119.099 153.901 51.2123 170.352 2.80811" stroke="#11191F" stroke-width="1.5" stroke-miterlimit="10"/>
<path d="M10.2312 106.272C10.2312 106.272 74.8959 73.9624 130.146 118.131" stroke="#11191F" stroke-width="1.5" stroke-miterlimit="10"/>
<path d="M269.681 106.514C269.241 107.119 209.151 72.3891 157.771 118.131" stroke="#11191F" stroke-width="1.5" stroke-miterlimit="10"/>
<path d="M100.234 152.74C100.234 152.74 109.911 123.335 123.02 118.131" stroke="#11191F" stroke-width="1.5" stroke-miterlimit="10"/>
<path d="M180.383 152.74C180.383 152.74 170.705 123.335 157.596 118.131" stroke="#11191F" stroke-width="1.5" stroke-miterlimit="10"/>
<path d="M43.3986 134.225C43.3986 134.225 75.5109 92.3558 116.773 115.71C77.2706 49.76 22.8994 36.3279 22.8994 36.3279" stroke="#11191F" stroke-width="1.5" stroke-miterlimit="10"/>
<path d="M235.634 135.436C235.634 135.436 203.17 93.3239 160.675 117.042" stroke="#11191F" stroke-width="1.5" stroke-miterlimit="10"/>
</g>
<defs>
<clipPath id="clip0">
<rect width="280" height="156.879" fill="white"/>
</clipPath>
</defs>
</svg>
