<svg width="280" height="158" viewBox="0 0 280 158" fill="none" xmlns="http://www.w3.org/2000/svg">
<g clip-path="url(#clip0)">
<path d="M279 79.0665C279 100.192 263.698 119.524 238.506 133.632C213.347 147.72 178.521 156.467 140 156.467C101.479 156.467 66.6533 147.72 41.4937 133.632C16.3017 119.524 1 100.192 1 79.0665C1 57.9409 16.3017 38.6093 41.4937 24.5018C66.6533 10.4124 101.479 1.6665 140 1.6665C178.521 1.6665 213.347 10.4124 238.506 24.5018C263.698 38.6093 279 57.9409 279 79.0665Z" stroke="#11191F" stroke-width="2"/>
<path d="M149.236 84.8711C148.416 84.8711 147.683 84.8711 146.912 84.8711C146.912 86.4139 146.912 87.9181 146.912 89.4705C146.13 89.4705 145.388 89.4705 144.607 89.4705C144.607 91.7942 144.607 94.0698 144.607 96.4032C143.826 96.4032 143.083 96.4032 142.282 96.4032C142.282 97.2035 142.282 97.9459 142.282 98.727C141.501 98.727 140.759 98.727 139.978 98.727C139.978 100.279 139.978 101.793 139.978 103.364C139.177 103.364 138.434 103.364 137.653 103.364C137.653 104.145 137.653 104.888 137.653 105.669C136.872 105.669 136.13 105.669 135.329 105.669C135.329 106.469 135.329 107.212 135.329 107.993C134.548 107.993 133.805 107.993 133.024 107.993C133.024 108.774 133.024 109.516 133.024 110.297C132.243 110.297 131.51 110.297 130.719 110.297C130.719 111.078 130.719 111.821 130.719 112.621C129.147 112.621 127.633 112.621 126.08 112.621C126.08 113.402 126.08 114.144 126.08 114.906C123.756 114.906 121.47 114.906 119.127 114.906C119.127 114.164 119.127 113.421 119.127 112.64C117.574 112.64 116.06 112.64 114.507 112.64C114.507 111.859 114.507 111.117 114.507 110.316C113.707 110.316 112.964 110.316 112.183 110.316C112.183 109.535 112.183 108.793 112.183 108.012C111.402 108.012 110.659 108.012 109.878 108.012C109.878 105.688 109.878 103.403 109.878 101.079C109.097 101.079 108.354 101.079 107.573 101.079C107.573 94.1084 107.573 87.1949 107.573 80.2429C108.316 80.2429 109.049 80.2429 109.83 80.2429C109.83 77.1478 109.83 74.0912 109.83 70.9768C110.63 70.9768 111.373 70.9768 112.154 70.9768C112.154 69.4244 112.154 67.9105 112.154 66.3582C112.935 66.3582 113.678 66.3582 114.478 66.3582C114.478 64.7865 114.478 63.2727 114.478 61.7203C115.26 61.7203 116.002 61.7203 116.783 61.7203C116.783 60.1679 116.783 58.654 116.783 57.1017C117.565 57.1017 118.298 57.1017 119.088 57.1017C119.088 55.5493 119.088 54.0354 119.088 52.4638C119.889 52.4638 120.631 52.4638 121.413 52.4638C121.413 51.6828 121.413 50.9499 121.413 50.1593C122.194 50.1593 122.936 50.1593 123.737 50.1593C123.737 49.359 123.737 48.6165 123.737 47.8355C124.518 47.8355 125.261 47.8355 126.042 47.8355C126.042 47.0545 126.042 46.3121 126.042 45.5118C127.614 45.5118 129.128 45.5118 130.681 45.5118C130.681 44.7307 130.681 43.9883 130.681 43.2266C134.548 43.2266 138.377 43.2266 142.244 43.2266C142.244 43.9594 142.244 44.6922 142.244 45.4828C143.025 45.4828 143.768 45.4828 144.568 45.4828C144.568 46.2831 144.568 47.0256 144.568 47.8066C145.349 47.8066 146.092 47.8066 146.873 47.8066C146.873 48.5876 146.873 49.3301 146.873 50.1304C147.674 50.1304 148.416 50.1304 149.197 50.1304C149.197 53.2255 149.197 56.2821 149.197 59.3772C149.978 59.3772 150.721 59.3772 151.493 59.3772C151.493 64.0344 151.493 68.6337 151.493 73.2716C150.74 73.2716 150.007 73.2716 149.226 73.2716C149.236 77.1381 149.236 80.9661 149.236 84.8711ZM116.851 77.8998C116.851 87.1949 116.851 96.4321 116.851 105.688C117.622 105.688 118.355 105.688 119.137 105.688C119.137 107.241 119.137 108.754 119.137 110.268C122.252 110.268 125.309 110.268 128.405 110.268C128.405 109.497 128.405 108.764 128.405 107.983C129.186 107.983 129.928 107.983 130.729 107.983C130.729 107.183 130.729 106.44 130.729 105.659C131.52 105.659 132.253 105.659 133.034 105.659C133.034 104.107 133.034 102.593 133.034 101.021C133.834 101.021 134.577 101.021 135.358 101.021C135.358 99.4598 135.358 97.9556 135.358 96.4032C136.139 96.4032 136.882 96.4032 137.663 96.4032C137.663 93.2984 137.663 90.2515 137.663 87.1563C138.444 87.1563 139.187 87.1563 139.987 87.1563C139.987 84.0419 139.987 80.9853 139.987 77.8902C140.778 77.8902 141.511 77.8902 142.254 77.8902C142.254 68.6241 142.254 59.3965 142.254 50.1111C141.482 50.1111 140.73 50.1111 139.958 50.1111C139.958 49.3204 139.958 48.5876 139.958 47.8066C139.177 47.8066 138.434 47.8066 137.634 47.8066C137.634 47.0063 137.634 46.2638 137.634 45.531C136.072 45.531 134.567 45.531 133.014 45.531C133.014 46.3024 133.014 47.0449 133.014 47.8259C132.224 47.8259 131.491 47.8259 130.71 47.8259C130.71 48.6069 130.71 49.3493 130.71 50.1496C129.909 50.1496 129.166 50.1496 128.385 50.1496C128.385 50.9403 128.385 51.6731 128.385 52.4541C127.604 52.4541 126.862 52.4541 126.061 52.4541C126.061 54.0258 126.061 55.5396 126.061 57.092C125.27 57.092 124.537 57.092 123.756 57.092C123.756 58.6444 123.756 60.1582 123.756 61.7299C122.956 61.7299 122.213 61.7299 121.432 61.7299C121.432 64.0633 121.432 66.3389 121.432 68.6626C120.651 68.6626 119.908 68.6626 119.127 68.6626C119.127 71.7674 119.127 74.8143 119.127 77.8902C118.355 77.8998 117.622 77.8998 116.851 77.8998Z" fill="#11191F"/>
<path d="M188.565 101.05C188.565 102.574 188.565 104.097 188.565 105.678C187.793 105.678 187.05 105.678 186.269 105.678C186.269 106.459 186.269 107.202 186.269 107.983C185.488 107.983 184.745 107.983 183.945 107.983C183.945 108.783 183.945 109.526 183.945 110.307C183.164 110.307 182.421 110.307 181.64 110.307C181.64 111.088 181.64 111.83 181.64 112.611C180.087 112.611 178.573 112.611 177.021 112.611C177.021 113.392 177.021 114.135 177.021 114.916C174.677 114.916 172.391 114.916 170.067 114.916C170.067 114.173 170.067 113.44 170.067 112.65C168.514 112.65 167 112.65 165.428 112.65C165.428 111.849 165.428 111.107 165.428 110.326C164.647 110.326 163.905 110.326 163.123 110.326C163.123 108.774 163.123 107.26 163.123 105.688C162.323 105.688 161.58 105.688 160.799 105.688C160.799 103.364 160.799 101.079 160.799 98.7559C160.018 98.7559 159.275 98.7559 158.504 98.7559C158.504 92.5656 158.504 86.4428 158.504 80.2525C159.237 80.2525 159.979 80.2525 160.78 80.2525C160.78 77.1381 160.78 74.0815 160.78 70.9864C161.561 70.9864 162.294 70.9864 163.085 70.9864C163.085 68.6626 163.085 66.3774 163.085 64.0344C163.885 64.0344 164.628 64.0344 165.409 64.0344C165.409 62.482 165.409 60.9682 165.409 59.4158C166.19 59.4158 166.933 59.4158 167.733 59.4158C167.733 58.6155 167.733 57.873 167.733 57.092C168.514 57.092 169.257 57.092 170.038 57.092C170.038 55.5396 170.038 54.0258 170.038 52.4734C170.819 52.4734 171.552 52.4734 172.343 52.4734C172.343 51.6924 172.343 50.9499 172.343 50.1496C173.144 50.1496 173.886 50.1496 174.667 50.1496C174.667 49.3686 174.667 48.6262 174.667 47.8452C175.449 47.8452 176.191 47.8452 176.992 47.8452C176.992 47.0449 176.992 46.3024 176.992 45.5214C178.544 45.5214 180.058 45.5214 181.611 45.5214C181.611 44.7404 181.611 43.9979 181.611 43.2266C184.726 43.2266 187.783 43.2266 190.879 43.2266C190.879 43.9786 190.879 44.7115 190.879 45.4925C192.432 45.4925 193.946 45.4925 195.499 45.4925C195.499 47.0449 195.499 48.5587 195.499 50.1111C196.28 50.1111 197.022 50.1111 197.804 50.1111C197.804 53.9969 197.804 57.8248 197.804 61.6913C197.061 61.6913 196.328 61.6913 195.547 61.6913C195.547 62.4724 195.547 63.2148 195.547 63.9862C193.975 63.9862 192.461 63.9862 190.908 63.9862C190.908 63.2437 190.908 62.5109 190.908 61.7203C190.127 61.7203 189.384 61.7203 188.613 61.7203C188.613 58.6058 188.613 55.5493 188.613 52.4541C189.365 52.4541 190.098 52.4541 190.86 52.4541C190.86 50.9017 190.86 49.3879 190.86 47.8452C187.812 47.8452 184.765 47.8452 181.659 47.8452C181.659 48.578 181.659 49.3204 181.659 50.1207C180.859 50.1207 180.116 50.1207 179.335 50.1207C179.335 50.9017 179.335 51.6442 179.335 52.4252C178.554 52.4252 177.811 52.4252 177.011 52.4252C177.011 53.2255 177.011 53.9679 177.011 54.749C176.23 54.749 175.487 54.749 174.706 54.749C174.706 56.3014 174.706 57.8152 174.706 59.3869C173.905 59.3869 173.163 59.3869 172.382 59.3869C172.382 61.7106 172.382 63.9958 172.382 66.3196C171.601 66.3196 170.858 66.3196 170.077 66.3196C170.077 69.4147 170.077 72.4713 170.077 75.5664C169.296 75.5664 168.553 75.5664 167.772 75.5664C167.772 84.0805 167.772 92.5367 167.772 101.031C168.514 101.031 169.247 101.031 170.029 101.031C170.029 102.583 170.029 104.097 170.029 105.669C170.829 105.669 171.572 105.669 172.353 105.669C172.353 106.45 172.353 107.192 172.353 107.954C175.449 107.954 178.506 107.954 181.621 107.954C181.621 107.212 181.621 106.469 181.621 105.688C182.402 105.688 183.145 105.688 183.926 105.688C183.926 104.907 183.926 104.165 183.926 103.384C184.707 103.384 185.44 103.384 186.231 103.384C186.231 102.603 186.231 101.86 186.231 101.06C187.05 101.06 187.812 101.06 188.574 101.06L188.565 101.05Z" fill="#11191F"/>
<path d="M98.3045 101.061C98.3045 99.5368 98.3045 98.023 98.3045 96.4609C99.0567 96.4609 99.7993 96.4609 100.58 96.4609C100.58 97.9651 100.58 99.4789 100.58 101.041C99.8186 101.041 99.0567 101.041 98.2948 101.041L98.3045 101.061Z" fill="#11191F"/>
<path d="M188.574 101.061C188.574 99.5368 188.574 98.0133 188.574 96.4609C189.336 96.4609 190.078 96.4609 190.85 96.4609C190.85 97.9651 190.85 99.479 190.85 101.051C190.088 101.051 189.326 101.051 188.564 101.051L188.574 101.061Z" fill="#11191F"/>
<path d="M98.2953 101.042C98.2953 102.565 98.2953 104.079 98.2953 105.66C97.5142 105.66 96.7331 105.66 95.9616 105.66L95.9808 105.67C95.9808 104.146 95.9808 102.632 95.9808 101.061C96.7909 101.061 97.5528 101.061 98.3146 101.061C98.305 101.061 98.2953 101.042 98.2953 101.042Z" fill="#11191F"/>
<path d="M223.283 103.366C223.283 104.889 223.283 106.413 223.283 107.994C222.512 107.994 221.769 107.994 220.988 107.994C220.988 108.775 220.988 109.517 220.988 110.298C220.207 110.298 219.464 110.298 218.664 110.298C218.664 111.099 218.664 111.841 218.664 112.622C217.111 112.622 215.597 112.622 214.044 112.622C214.044 113.403 214.044 114.146 214.044 114.917C212.492 114.917 210.987 114.917 209.425 114.917C209.425 114.184 209.425 113.442 209.425 112.641C208.624 112.641 207.882 112.641 207.101 112.641C207.101 111.86 207.101 111.128 207.101 110.337C206.319 110.337 205.577 110.337 204.776 110.337C204.776 109.537 204.776 108.794 204.776 108.013C203.995 108.013 203.253 108.013 202.491 108.013C202.491 98.7465 202.491 89.5189 202.491 80.2335C203.233 80.2335 203.976 80.2335 204.757 80.2335C204.757 77.1384 204.757 74.0914 204.757 70.9866C205.538 70.9866 206.281 70.9866 207.081 70.9866C207.081 69.415 207.081 67.9011 207.081 66.3487C207.862 66.3487 208.605 66.3487 209.386 66.3487C209.386 64.7964 209.386 63.2825 209.386 61.7301C210.167 61.7301 210.9 61.7301 211.691 61.7301C211.691 60.1778 211.691 58.6639 211.691 57.0923C212.492 57.0923 213.234 57.0923 214.015 57.0923C214.015 55.5399 214.015 54.026 214.015 52.4737C214.797 52.4737 215.539 52.4737 216.34 52.4737C216.34 51.6734 216.34 50.9309 216.34 50.1499C217.121 50.1499 217.863 50.1499 218.645 50.1499C218.645 49.3689 218.645 48.6264 218.645 47.8261C219.445 47.8261 220.188 47.8261 220.969 47.8261C220.969 47.0451 220.969 46.3027 220.969 45.5216C222.522 45.5216 224.036 45.5216 225.588 45.5216C225.588 44.7406 225.588 44.0078 225.588 43.2268C228.684 43.2268 231.741 43.2268 234.856 43.2268C234.856 44.7503 234.856 46.2834 234.856 47.8261L234.866 47.8165C234.104 47.8165 233.333 47.8165 232.523 47.8165C232.523 47.0162 232.523 46.2641 232.523 45.5409C230.96 45.5409 229.465 45.5409 227.903 45.5409C227.903 46.3123 227.903 47.0547 227.903 47.855C227.103 47.855 226.36 47.855 225.579 47.855C225.579 48.6457 225.579 49.3785 225.579 50.1595C224.798 50.1595 224.055 50.1595 223.274 50.1595C223.274 50.9405 223.274 51.683 223.274 52.464C222.493 52.464 221.75 52.464 220.95 52.464C220.95 54.0357 220.95 55.5495 220.95 57.1019C220.168 57.1019 219.426 57.1019 218.645 57.1019C218.645 58.6543 218.645 60.1681 218.645 61.7398C217.844 61.7398 217.102 61.7398 216.32 61.7398C216.32 64.0636 216.32 66.3391 216.32 68.6725C215.539 68.6725 214.797 68.6725 213.996 68.6725C213.996 71.0156 213.996 73.3008 213.996 75.6245C213.215 75.6245 212.472 75.6245 211.691 75.6245C211.691 79.491 211.691 83.319 211.691 87.2048C210.891 87.2048 210.148 87.2048 209.415 87.2048C209.415 91.8427 209.415 96.4324 209.415 101.08C210.187 101.08 210.929 101.08 211.73 101.08C211.73 102.652 211.73 104.166 211.73 105.67C214.826 105.67 217.873 105.67 220.978 105.67C220.978 104.899 220.978 104.156 220.978 103.385C221.789 103.385 222.541 103.385 223.293 103.385L223.283 103.366ZM241.791 103.356C241.029 103.356 240.267 103.356 239.466 103.356C239.466 104.176 239.466 104.908 239.466 105.641C238.685 105.641 237.943 105.641 237.19 105.641C237.19 100.241 237.19 94.8896 237.19 89.4707C237.962 89.4707 238.704 89.4707 239.495 89.4707C239.495 84.0422 239.495 78.6715 239.495 73.2622C240.276 73.2622 241.019 73.2622 241.8 73.2622C241.8 68.6243 241.8 64.025 241.8 59.3678C242.601 59.3678 243.343 59.3678 244.124 59.3678C244.124 54.7299 244.124 50.1402 244.124 45.4927C244.906 45.4927 245.648 45.4927 246.391 45.4927C246.391 44.6924 246.391 43.95 246.391 43.2075C244.076 43.2075 241.8 43.2075 239.476 43.2075C239.476 44.7503 239.476 46.2641 239.476 47.8165C237.894 47.8165 236.371 47.8165 234.847 47.8165L234.856 47.8068C234.856 56.0798 234.856 64.3528 234.847 72.6258C234.847 72.8187 234.847 73.0115 234.847 73.2526C234.075 73.2526 233.333 73.2526 232.551 73.2526C232.551 76.3477 232.551 79.3946 232.551 82.4994C231.77 82.4994 231.028 82.4994 230.227 82.4994C230.227 84.8425 230.227 87.1277 230.227 89.4514C229.446 89.4514 228.713 89.4514 227.922 89.4514C227.922 91.0038 227.922 92.5176 227.922 94.0893C227.122 94.0893 226.379 94.0893 225.598 94.0893C225.598 95.6417 225.598 97.1459 225.598 98.7079C224.817 98.7079 224.074 98.7079 223.274 98.7079C223.274 100.299 223.274 101.832 223.274 103.366L223.264 103.356C224.026 103.356 224.798 103.356 225.608 103.356C225.608 102.556 225.608 101.804 225.608 101.032C226.398 101.032 227.131 101.032 227.913 101.032C227.913 99.4793 227.913 97.9655 227.913 96.442C228.703 96.442 229.436 96.442 230.218 96.442C230.218 102.613 230.218 108.756 230.218 114.898C231.79 114.898 233.304 114.898 234.856 114.898C234.856 114.126 234.856 113.393 234.856 112.612C235.638 112.612 236.38 112.612 237.181 112.612C237.181 111.812 237.181 111.07 237.181 110.289C237.971 110.289 238.704 110.289 239.486 110.289C239.486 109.508 239.486 108.765 239.486 107.965C240.286 107.965 241.029 107.965 241.762 107.965C241.762 106.384 241.762 104.86 241.762 103.337C241.781 103.346 241.791 103.356 241.791 103.356ZM244.124 98.7465C243.362 98.7465 242.601 98.7465 241.791 98.7465C241.791 100.318 241.791 101.842 241.791 103.356L241.771 103.346C242.543 103.346 243.324 103.346 244.105 103.346C244.105 101.775 244.105 100.251 244.105 98.7368L244.124 98.7465ZM244.115 98.7368C244.877 98.7368 245.639 98.7368 246.4 98.7368C246.4 97.9365 246.4 97.2037 246.4 96.4613C245.629 96.4613 244.886 96.4613 244.124 96.4613C244.124 97.2519 244.124 97.9944 244.124 98.7465L244.115 98.7368Z" fill="#11191F"/>
<path d="M75.1495 70.9671C75.1495 72.4906 75.1495 74.014 75.1495 75.5954C74.378 75.5954 73.6354 75.5954 72.8542 75.5954C72.8542 78.6905 72.8542 81.7374 72.8542 84.8422C72.0731 84.8422 71.3305 84.8422 70.53 84.8422C70.53 87.9566 70.53 91.0132 70.53 94.1083C69.7488 94.1083 69.0159 94.1083 68.2251 94.1083C68.2251 98.7462 68.2251 103.345 68.2251 108.002C67.4246 108.002 66.682 108.002 65.9008 108.002C65.9008 109.555 65.9008 111.059 65.9008 112.602C63.5766 112.602 61.2909 112.602 58.9763 112.602C58.9763 110.326 58.9763 108.05 58.9763 105.717C59.7093 105.717 60.4519 105.717 61.2523 105.717C61.2523 101.06 61.2523 96.461 61.2523 91.8232C62.0335 91.8232 62.7665 91.8232 63.5573 91.8232C63.5573 87.1853 63.5573 82.5859 63.5573 77.9288C64.3578 77.9288 65.1004 77.9288 65.8815 77.9288C65.8815 73.2909 65.8815 68.7012 65.8815 64.0537C66.6627 64.0537 67.4053 64.0537 68.1865 64.0537C68.1865 60.1679 68.1865 56.3399 68.1865 52.4831C66.6723 52.4831 65.1679 52.4831 63.6152 52.4831C63.6152 53.2159 63.6152 53.9679 63.6152 54.7586C62.8147 54.7586 62.0721 54.7586 61.2909 54.7586C61.2909 55.5396 61.2909 56.2724 61.2909 57.0631C60.5097 57.0631 59.7671 57.0631 58.9667 57.0631C58.9667 58.6348 58.9667 60.1486 58.9667 61.701C58.1855 61.701 57.4526 61.701 56.6617 61.701C56.6617 63.2534 56.6617 64.7672 56.6617 66.3196C55.8806 66.3196 55.1476 66.3196 54.3568 66.3196C54.3568 67.872 54.3568 69.3858 54.3568 70.9575C53.5563 70.9575 52.8137 70.9575 52.0326 70.9575C52.0326 72.5099 52.0326 74.014 52.0326 75.5761C51.2514 75.5761 50.5088 75.5761 49.7083 75.5761C49.7083 77.9191 49.7083 80.2043 49.7083 82.5281C48.9271 82.5281 48.1942 82.5281 47.4034 82.5281C47.4034 85.6232 47.4034 88.6798 47.4034 91.7942C46.6029 91.7942 45.8603 91.7942 45.0791 91.7942C45.0791 95.6607 45.0791 99.479 45.0791 103.355C44.298 103.355 43.5554 103.355 42.7549 103.355C42.7549 106.469 42.7549 109.526 42.7549 112.611C40.4307 112.611 38.1546 112.611 35.8401 112.611C35.8401 108.012 35.8401 103.413 35.8401 98.7559C36.5827 98.7559 37.3253 98.7559 38.1064 98.7559C38.1064 94.118 38.1064 89.5283 38.1064 84.8808C38.8876 84.8808 39.6302 84.8808 40.4307 84.8808C40.4307 80.2236 40.4307 75.6243 40.4307 70.9864C41.2118 70.9864 41.9448 70.9864 42.7356 70.9864C42.7356 66.3485 42.7356 61.7492 42.7356 57.1113C43.5168 57.1113 44.2497 57.1113 45.0309 57.1113C45.0309 55.5589 45.0309 54.0451 45.0309 52.4734C44.298 52.4734 43.5554 52.4734 42.7742 52.4734C42.7742 51.6924 42.7742 50.9596 42.7742 50.1689C41.2118 50.1689 39.6977 50.1689 38.1546 50.1689C38.1546 49.3686 38.1546 48.6262 38.1546 47.8452C39.6688 47.8452 41.1733 47.8452 42.7356 47.8452C42.7356 47.0641 42.7356 46.3217 42.7356 45.5214C45.0791 45.5214 47.3648 45.5214 49.689 45.5214C49.689 44.7404 49.689 44.0076 49.689 43.2362C51.2417 43.2362 52.7559 43.2362 54.2989 43.2362C54.2989 44.75 54.2989 46.2638 54.2989 47.8162C53.5467 47.8162 52.8137 47.8162 52.0326 47.8162C52.0326 52.4541 52.0326 57.0534 52.0326 61.6913C51.2514 61.6913 50.5184 61.6913 49.7373 61.6913C49.7373 64.0151 49.7373 66.3003 49.7373 68.6241C50.4702 68.6241 51.2128 68.6241 51.994 68.6241C51.994 67.1199 51.994 65.6157 51.994 64.0537C52.7752 64.0537 53.5178 64.0537 54.3182 64.0537C54.3182 62.482 54.3182 60.9682 54.3182 59.4158C55.0994 59.4158 55.8323 59.4158 56.6232 59.4158C56.6232 57.8634 56.6232 56.3496 56.6232 54.7779C57.4236 54.7779 58.1662 54.7779 58.9474 54.7779C58.9474 53.9969 58.9474 53.2641 58.9474 52.4734C59.7286 52.4734 60.4712 52.4734 61.2716 52.4734C61.2716 50.9017 61.2716 49.3879 61.2716 47.8355C62.0528 47.8355 62.7858 47.8355 63.5766 47.8355C63.5766 47.0545 63.5766 46.3121 63.5766 45.531C64.3578 45.531 65.0907 45.531 65.8815 45.531C65.8815 44.75 65.8815 44.0076 65.8815 43.2266C68.2251 43.2266 70.5107 43.2266 72.8349 43.2266C72.8349 43.969 72.8349 44.7018 72.8349 45.4828C73.6161 45.4828 74.3587 45.4828 75.1592 45.4828C75.1592 51.702 75.1592 57.8634 75.1592 64.0247L75.1688 64.0151C74.4069 64.0151 73.6451 64.0151 72.8832 64.0151C72.8832 66.3678 72.8832 68.653 72.8832 70.9671C73.6643 70.9671 74.4166 70.9671 75.1688 70.9671H75.1495ZM75.1592 64.0247C75.1592 66.3389 75.1592 68.6626 75.1592 70.9768L75.1495 70.9671C75.9114 70.9671 76.683 70.9671 77.4931 70.9671C77.4931 69.3954 77.4931 67.8816 77.4931 66.3292C78.2839 66.3292 79.0168 66.3292 79.798 66.3292C79.798 64.7768 79.798 63.263 79.798 61.6913C80.5985 61.6913 81.3411 61.6913 82.1222 61.6913C82.1222 60.1293 82.1222 58.6251 82.1222 57.0727C82.9034 57.0727 83.646 57.0727 84.4272 57.0727C84.4272 56.2821 84.4272 55.5493 84.4272 54.7682C85.2084 54.7682 85.951 54.7682 86.7514 54.7682C86.7514 53.9679 86.7514 53.2255 86.7514 52.4831C88.3138 52.4831 89.8086 52.4831 91.3324 52.4831C91.3324 56.3399 91.3324 60.1679 91.3324 64.044C90.5609 64.044 89.8086 64.044 89.0371 64.044C89.0371 68.6819 89.0371 73.2716 89.0371 77.9191C88.2559 77.9191 87.5133 77.9191 86.7129 77.9191C86.7129 83.3477 86.7129 88.7184 86.7129 94.1276C85.9317 94.1276 85.1987 94.1276 84.4465 94.1276C84.4465 100.308 84.4465 106.45 84.4465 112.65C85.218 112.65 85.9703 112.65 86.7418 112.65C86.7418 113.44 86.7418 114.173 86.7418 114.916C88.2945 114.916 89.8086 114.916 91.3806 114.916C91.3806 114.144 91.3806 113.392 91.3806 112.621C92.1714 112.621 92.9044 112.621 93.6856 112.621C93.6856 111.84 93.6856 111.097 93.6856 110.297C94.486 110.297 95.2286 110.297 95.9616 110.297C95.9616 108.716 95.9616 107.192 95.9616 105.669L95.9809 105.678C94.4474 105.678 92.914 105.678 91.3903 105.678C91.3903 102.564 91.3903 99.5176 91.3903 96.4128C92.1618 96.4128 92.9044 96.4128 93.6856 96.4128C93.6856 91.7653 93.6856 87.1853 93.6856 82.5377C94.4667 82.5377 95.2093 82.5377 96.0098 82.5377C96.0098 77.8806 96.0098 73.2812 96.0098 68.6433C96.8006 68.6433 97.5336 68.6433 98.2762 68.6433C98.2762 60.92 98.2762 53.2351 98.2762 45.4925C97.5046 45.4925 96.7524 45.4925 95.9809 45.4925C95.9809 44.7018 95.9809 43.969 95.9809 43.2266C93.6566 43.2266 91.371 43.2266 89.0274 43.2266C89.0274 44.0076 89.0274 44.75 89.0274 45.531C88.2366 45.531 87.5037 45.531 86.7225 45.531C86.7225 46.3121 86.7225 47.0545 86.7225 47.8548C85.922 47.8548 85.1794 47.8548 84.3983 47.8548C84.3983 49.4168 84.3983 50.921 84.3983 52.4734C83.6171 52.4734 82.8745 52.4734 82.0933 52.4734C82.0933 53.2641 82.0933 53.9969 82.0933 54.7779C81.3121 54.7779 80.5695 54.7779 79.7691 54.7779C79.7691 56.3496 79.7691 57.8634 79.7691 59.4158C78.9783 59.4158 78.2453 59.4158 77.4641 59.4158C77.4641 60.9682 77.4641 62.482 77.4641 64.0344C76.654 64.0344 75.9018 64.0344 75.1495 64.0344L75.1592 64.0247ZM72.8735 64.0247C72.8735 66.3774 72.8735 68.6626 72.8735 70.9768C73.6547 70.9768 74.4069 70.9768 75.1592 70.9768C75.1592 68.6626 75.1592 66.3389 75.1592 64.0247C74.3973 64.0247 73.6354 64.0247 72.8735 64.0247Z" fill="#11191F"/>
</g>
<defs>
<clipPath id="clip0">
<rect width="280" height="157" fill="white" transform="translate(0 0.666504)"/>
</clipPath>
</defs>
</svg>
