<svg width="280" height="156" viewBox="0 0 280 156" fill="none" xmlns="http://www.w3.org/2000/svg">
<path d="M279 78C279 99.0125 263.702 118.244 238.508 132.281C213.348 146.299 178.522 155 140 155C101.478 155 66.6518 146.299 41.4918 132.281C16.2984 118.244 1 99.0125 1 78C1 56.9875 16.2984 37.7555 41.4918 23.7192C66.6518 9.7015 101.478 1 140 1C178.522 1 213.348 9.7015 238.508 23.7192C263.702 37.7555 279 56.9875 279 78Z" stroke="#11191F" stroke-width="2"/>
<path d="M74.5309 68H78.5149V38.576L95.8429 68H100.643V33.68H96.6589V62.048L79.9549 33.68H74.5309V68Z" fill="#11191F"/>
<path d="M119.249 68.432C124.913 68.432 129.089 65.792 129.953 60.752H125.969C125.441 63.68 123.185 65.12 119.297 65.12C114.161 65.12 111.425 61.952 111.233 56.24H130.145V54.944C130.145 45.968 124.673 42.464 118.865 42.464C111.953 42.464 107.105 47.744 107.105 55.328V55.712C107.105 63.44 112.145 68.432 119.249 68.432ZM111.377 53.024C112.049 48.56 114.785 45.776 118.865 45.776C122.993 45.776 125.681 47.84 126.065 53.024H111.377Z" fill="#11191F"/>
<path d="M141.064 68H145.432L151.288 49.184L156.52 68H160.936L168.76 42.896H164.68L158.776 63.104L153.064 42.896H149.608L143.512 63.104L137.656 42.896H133.336L141.064 68Z" fill="#11191F"/>
<path d="M174.23 68H178.262V30.896H174.23V68Z" fill="#11191F"/>
<path d="M188.671 76.736H192.703L206.575 42.896H202.495L195.535 60.896L187.855 42.896H183.583L193.423 65.408L188.671 76.736Z" fill="#11191F"/>
<path d="M66.0093 120H69.9453L73.2573 110.112H87.4173L90.7773 120H94.9053L83.2893 85.68H77.8173L66.0093 120ZM80.3613 89.136L86.3133 106.8H74.4093L80.3613 89.136Z" fill="#11191F"/>
<path d="M109.644 120.432C113.292 120.432 116.796 118.128 118.236 115.68V120H122.22V82.896H118.236V98.928C116.796 96.48 114.204 94.464 110.028 94.464C103.116 94.464 98.3163 99.888 98.3163 107.568V107.952C98.3163 115.776 103.068 120.432 109.644 120.432ZM110.076 117.12C105.852 117.12 102.444 114.096 102.444 107.76V107.376C102.444 101.28 105.42 97.776 110.412 97.776C115.308 97.776 118.38 100.8 118.38 107.232V107.616C118.38 114.048 114.732 117.12 110.076 117.12Z" fill="#11191F"/>
<path d="M139.738 120.432C143.386 120.432 146.89 118.128 148.33 115.68V120H152.314V82.896H148.33V98.928C146.89 96.48 144.298 94.464 140.122 94.464C133.21 94.464 128.41 99.888 128.41 107.568V107.952C128.41 115.776 133.162 120.432 139.738 120.432ZM140.17 117.12C135.946 117.12 132.538 114.096 132.538 107.76V107.376C132.538 101.28 135.514 97.776 140.506 97.776C145.402 97.776 148.474 100.8 148.474 107.232V107.616C148.474 114.048 144.826 117.12 140.17 117.12Z" fill="#11191F"/>
<path d="M170.648 120.432C176.312 120.432 180.488 117.792 181.352 112.752H177.368C176.84 115.68 174.584 117.12 170.696 117.12C165.56 117.12 162.824 113.952 162.632 108.24H181.544V106.944C181.544 97.968 176.072 94.464 170.264 94.464C163.352 94.464 158.504 99.744 158.504 107.328V107.712C158.504 115.44 163.544 120.432 170.648 120.432ZM162.776 105.024C163.448 100.56 166.184 97.776 170.264 97.776C174.392 97.776 177.08 99.84 177.464 105.024H162.776Z" fill="#11191F"/>
<path d="M197.113 120.432C200.761 120.432 204.265 118.128 205.705 115.68V120H209.689V82.896H205.705V98.928C204.265 96.48 201.673 94.464 197.497 94.464C190.585 94.464 185.785 99.888 185.785 107.568V107.952C185.785 115.776 190.537 120.432 197.113 120.432ZM197.545 117.12C193.321 117.12 189.913 114.096 189.913 107.76V107.376C189.913 101.28 192.889 97.776 197.881 97.776C202.777 97.776 205.849 100.8 205.849 107.232V107.616C205.849 114.048 202.201 117.12 197.545 117.12Z" fill="#11191F"/>
</svg>
