<svg width="281" height="156" viewBox="0 0 281 156" fill="none" xmlns="http://www.w3.org/2000/svg">
<path fill-rule="evenodd" clip-rule="evenodd" d="M44.4189 20.3624C70.1845 7.23401 104.136 0 140.034 0C175.931 0 209.883 7.23401 235.648 20.3624C264.299 34.9644 280.067 55.3937 280.067 77.9665C280.067 100.539 264.299 120.969 235.648 135.571C209.883 148.699 175.931 155.933 140.034 155.933C104.136 155.933 70.1845 148.699 44.4189 135.571C15.768 120.969 0 100.539 0 77.9665C0 55.4607 15.768 34.9644 44.4189 20.3624ZM266.581 77.9667C266.581 42.3325 209.95 13.3965 140.101 13.3965H140.034H138.289C69.2454 13.9323 13.554 42.6674 13.554 77.9667C13.554 113.601 70.1848 142.537 140.034 142.537H140.101H141.845C210.889 142.068 266.581 113.333 266.581 77.9667ZM177.475 47.8916C177.475 59.3224 172.458 68.5889 166.269 68.5889C160.081 68.5889 155.064 59.3224 155.064 47.8916C155.064 36.4608 160.081 27.1943 166.269 27.1943C172.458 27.1943 177.475 36.4608 177.475 47.8916ZM111.517 68.5889C117.706 68.5889 122.723 59.3224 122.723 47.8916C122.723 36.4608 117.706 27.1943 111.517 27.1943C105.329 27.1943 100.312 36.4608 100.312 47.8916C100.312 59.3224 105.329 68.5889 111.517 68.5889ZM76.7603 116.548C96.2858 125.59 116.952 128.872 136.41 129.006C155.064 129.006 171.637 126.93 187.74 121.571C201.294 117.084 213.909 110.854 223.839 100.204C230.75 92.8362 235.246 84.2626 235.179 73.8804C235.112 69.6606 232.428 67.0483 228.536 66.9813C224.577 66.9144 221.558 69.3257 221.424 73.4116C221.088 81.4494 217.196 87.4777 211.56 92.7692C202.234 101.477 191.028 106.433 179.018 109.85C153.923 116.95 128.627 117.418 103.331 111.256C88.9722 107.773 75.4855 102.348 64.6156 91.8985C59.5832 87.0758 56.0941 81.3154 55.8257 74.0814C55.7586 73.1436 55.5573 72.0719 55.1547 71.2012C53.8128 68.187 50.525 66.5795 47.4385 67.2493C44.0165 67.9191 41.8693 70.7323 41.9364 74.6172C42.0706 82.588 44.8887 89.6211 49.6527 95.9174C56.7651 105.295 66.2259 111.658 76.7603 116.548Z" fill="#11191F"/>
</svg>
