<svg width="280" height="156" viewBox="0 0 280 156" fill="none" xmlns="http://www.w3.org/2000/svg">
<path d="M279 78C279 99.0125 263.702 118.244 238.508 132.281C213.348 146.299 178.522 155 140 155C101.478 155 66.6518 146.299 41.4918 132.281C16.2984 118.244 1 99.0125 1 78C1 56.9875 16.2984 37.7555 41.4918 23.7192C66.6518 9.7015 101.478 1 140 1C178.522 1 213.348 9.7015 238.508 23.7192C263.702 37.7555 279 56.9875 279 78Z" stroke="#11191F" stroke-width="2"/>
<path d="M36 109.296H43.1553V62.9023L54.3625 88.5199H61.604L72.8112 62.9023V109.296H79.9665V46.7043H72.8974L57.9833 80.1568L43.0691 46.7043H36V109.296Z" fill="#11191F"/>
<path d="M108.126 110H116.316L124.161 106.215L130.196 99.9642L133.299 92.3934L134.765 84.3824V71.6176L133.299 63.6066L130.196 56.0358L124.161 49.7854L116.316 46H108.126L100.281 49.7854L94.2469 56.0358L91.1433 63.6066L89.6778 71.6176V84.3824L91.1433 92.3934L94.2469 99.9642L100.281 106.215L108.126 110ZM98.6435 91.7772L98.1263 90.5447L96.8331 83.7662V72.1458L98.0401 65.7194L100.109 60.2613L104.42 55.7717L109.592 53.2187H114.851L120.023 55.7717L122.437 58.2366L98.6435 91.7772ZM109.506 102.781L104.506 100.316L102.092 97.6754L125.799 64.2228L126.403 65.7194L127.61 72.1458V83.7662L126.317 90.5447L124.248 95.6506L119.937 100.316L114.937 102.781H109.506Z" fill="#11191F"/>
<path d="M165.166 110H174.218L183.184 106.391L187.063 103.309L190.426 99.26L185.339 94.3301L182.408 97.7634L179.736 99.9642L173.184 102.781H166.373L160.166 99.7882L156.114 95.5626L153.183 89.7524L151.89 83.8542V72.0578L153.183 66.1596L156.114 60.2613L160.253 56.0358L166.373 53.2187H173.184L179.65 56.0358L182.322 58.2366L185.339 61.6699L190.426 56.74L187.063 52.6905L183.184 49.6094L174.218 46H165.166L156.114 50.0495L150.166 55.9477L146.373 63.7827L144.735 71.5296V84.4704L146.373 92.0413L150.166 99.8762L155.942 105.862L165.166 110Z" fill="#11191F"/>
<path d="M238.414 109.296H246L223.672 46.7043H217.982L195.654 109.296H203.24L209.62 90.5447H232.034L238.414 109.296ZM212.12 83.326L220.827 57.7084L229.534 83.326H212.12Z" fill="#11191F"/>
</svg>
