<svg width="280" height="156" viewBox="0 0 280 156" fill="none" xmlns="http://www.w3.org/2000/svg">
<path d="M279 78C279 99.0125 263.702 118.244 238.508 132.281C213.348 146.299 178.522 155 140 155C101.478 155 66.6518 146.299 41.4918 132.281C16.2984 118.244 1 99.0125 1 78C1 56.9875 16.2984 37.7555 41.4918 23.7192C66.6518 9.7015 101.478 1 140 1C178.522 1 213.348 9.7015 238.508 23.7192C263.702 37.7555 279 56.9875 279 78Z" stroke="#11191F" stroke-width="2"/>
<path d="M74.7225 73.2222C73.9464 73.2222 73.3336 73.2222 72.6596 73.2222C72.6596 70.6782 72.6596 68.236 72.6596 65.6411C71.9651 65.6411 71.332 65.6411 70.5967 65.6411C70.5967 63.8858 70.5967 62.2576 70.5967 60.5277C69.8818 60.5277 69.2895 60.5277 68.5746 60.5277C68.5746 57.9583 68.5746 55.4907 68.5746 52.9212C67.8597 52.9212 67.2674 52.9212 66.5525 52.9212C66.5525 51.1913 66.5525 49.5632 66.5525 47.8587C65.8172 47.8587 65.184 47.8587 64.4896 47.8587C64.4896 50.3518 64.4896 52.794 64.4896 55.3635C63.7951 55.3635 63.162 55.3635 62.4675 55.3635C62.4675 58.7978 62.4675 62.0796 62.4675 65.5139C61.7731 65.5139 61.1399 65.5139 60.4046 65.5139C60.4046 69.8133 60.4046 73.9854 60.4046 78.2593C59.6897 78.2593 59.0974 78.2593 58.3621 78.2593C58.3621 81.6936 58.3621 85.0008 58.3621 88.4352C57.6472 88.4352 57.0549 88.4352 56.34 88.4352C56.34 91.8441 56.34 95.1767 56.34 98.6365C55.6047 98.6365 54.9715 98.6365 54.2771 98.6365C54.2771 102.071 54.2771 105.353 54.2771 108.787C53.5826 108.787 52.9495 108.787 52.2754 108.787C52.2754 110.517 52.2754 112.12 52.2754 113.85C52.8678 113.85 53.5009 113.85 54.2362 113.85C54.2362 115.605 54.2362 117.233 54.2362 118.963C56.2992 118.963 58.26 118.963 60.3025 118.963C60.3025 119.828 60.3025 120.617 60.3025 121.456C53.5622 121.456 46.8015 121.456 40 121.456C40 120.667 40 119.93 40 119.014C41.3072 119.014 42.6144 119.014 44.0033 119.014C44.0033 118.123 44.0033 117.386 44.0033 116.495C44.6978 116.495 45.3309 116.495 46.0662 116.495C46.0662 114.74 46.0662 113.112 46.0662 111.382C46.7811 111.382 47.3734 111.382 48.0883 111.382C48.0883 108.812 48.0883 106.345 48.0883 103.775C48.8032 103.775 49.3955 103.775 50.1104 103.775C50.1104 100.341 50.1104 97.0338 50.1104 93.5486C50.8457 93.5486 51.4789 93.5486 52.1733 93.5486C52.1733 90.1142 52.1733 86.8325 52.1733 83.3981C52.8678 83.3981 53.5009 83.3981 54.1954 83.3981C54.1954 79.9637 54.1954 76.682 54.1954 73.2476C54.8898 73.2476 55.523 73.2476 56.2583 73.2476C56.2583 69.7878 56.2583 66.4552 56.2583 63.0463C56.9732 63.0463 57.5655 63.0463 58.3008 63.0463C58.3008 59.6119 58.3008 56.3047 58.3008 52.8704C59.0157 52.8704 59.608 52.8704 60.3229 52.8704C60.3229 49.4614 60.3229 46.1288 60.3229 42.669C61.0582 42.669 61.6914 42.669 62.3654 42.669C62.3654 40.9391 62.3654 39.3364 62.3654 37.6065C61.7322 37.6065 61.1195 37.6065 60.4046 37.6065C60.4046 35.8766 60.4046 34.2739 60.4046 32.544C58.3417 32.544 56.3604 32.544 54.2975 32.544C54.2975 31.6281 54.2975 30.8395 54.2975 30C59.6897 30 65.0615 30 70.5354 30C70.5354 31.6281 70.5354 33.2563 70.5354 35.0116C71.2707 35.0116 71.8834 35.0116 72.5983 35.0116C72.5983 36.7415 72.5983 38.3442 72.5983 40.0742C73.2928 40.0742 73.9259 40.0742 74.6204 40.0742C74.6204 42.6436 74.6204 45.0858 74.6204 47.6806C75.3148 47.6806 75.948 47.6806 76.6833 47.6806C76.6833 50.3009 76.6833 52.7686 76.6833 55.338C77.3982 55.338 77.9905 55.338 78.7054 55.338C78.7054 57.0679 78.7054 58.6961 78.7054 60.4005C79.4407 60.4514 80.0739 60.4769 80.7683 60.5277C80.7683 63.0463 80.7683 65.4885 80.7683 68.0834C81.4628 68.0834 82.0959 68.0834 82.7904 68.0834C82.7904 70.6782 82.7904 73.1204 82.7904 75.7153C83.4848 75.7153 84.118 75.7153 84.8125 75.7153C84.8125 77.4452 84.8125 79.0479 84.8125 80.7778C85.5069 80.7778 86.1401 80.7778 86.8754 80.7778C86.8754 83.3981 86.8754 85.8658 86.8754 88.4352C87.5903 88.4352 88.1826 88.4352 88.8975 88.4352C88.8975 91.0046 88.8975 93.4723 88.8975 96.0417C90.2864 96.0417 91.5731 96.0417 92.962 96.0417C92.962 92.7599 92.962 89.4273 92.962 85.9675C93.6973 85.9675 94.3305 85.9675 95.025 85.9675C95.025 82.5332 95.025 79.2514 95.025 75.8171C95.7194 75.8171 96.3526 75.8171 97.0879 75.8171C97.0879 72.3572 97.0879 69.0246 97.0879 65.6157C97.8028 65.6157 98.3951 65.6157 99.11 65.6157C99.11 62.2068 99.11 58.8742 99.11 55.4398C99.8248 55.4398 100.417 55.4398 101.132 55.4398C101.132 52.0309 101.132 48.6982 101.132 45.2893C101.847 45.2893 102.439 45.2893 103.134 45.2893C103.134 41.8804 103.134 38.5478 103.134 35.088C102.541 35.088 101.908 35.088 101.214 35.088C101.214 34.1976 101.214 33.4598 101.214 32.5694C99.1508 32.5694 97.1696 32.5694 95.1067 32.5694C95.1067 31.6536 95.1067 30.865 95.1067 30.0254C101.867 30.0254 108.608 30.0254 115.389 30.0254C115.389 30.8141 115.389 31.5773 115.389 32.4677C114.102 32.4677 112.815 32.4677 111.426 32.4677C111.426 33.3326 111.426 34.1212 111.426 35.0371C110.691 35.0371 110.058 35.0371 109.363 35.0371C109.363 36.767 109.363 38.3697 109.363 40.0996C108.669 40.0996 108.036 40.0996 107.3 40.0996C107.3 42.7199 107.3 45.1875 107.3 47.757C106.586 47.757 105.993 47.757 105.278 47.757C105.278 51.1659 105.278 54.4985 105.278 57.9074C104.563 57.9074 103.971 57.9074 103.256 57.9074C103.256 61.3164 103.256 64.649 103.256 68.1088C102.521 68.1088 101.908 68.1088 101.193 68.1088C101.193 71.5432 101.193 74.8249 101.193 78.2593C100.478 78.2593 99.8657 78.2593 99.1508 78.2593C99.1508 81.6936 99.1508 85.0008 99.1508 88.4352C98.4564 88.4352 97.8232 88.4352 97.0879 88.4352C97.0879 91.895 97.0879 95.2276 97.0879 98.6365C96.373 98.6365 95.7807 98.6365 95.0658 98.6365C95.0658 102.045 95.0658 105.378 95.0658 108.787C94.3509 108.787 93.7586 108.787 93.0437 108.787C93.0437 112.196 93.0437 115.529 93.0437 118.988C92.3084 118.988 91.6753 118.988 90.9808 118.988C90.9808 120.744 90.9808 122.321 90.9808 124C90.2864 124 89.6532 124 88.9587 124C88.9587 123.237 88.9587 122.499 88.9587 121.609C88.2643 121.609 87.6311 121.609 86.8958 121.609C86.8958 118.988 86.8958 116.521 86.8958 113.951C86.1809 113.951 85.5886 113.951 84.8737 113.951C84.8737 111.382 84.8737 108.914 84.8737 106.345C84.1589 106.345 83.5665 106.345 82.8517 106.345C82.8517 104.615 82.8517 102.987 82.8517 101.231C82.1164 101.231 81.4832 101.231 80.7887 101.231C80.7887 98.662 80.7887 96.2198 80.7887 93.6249C80.0943 93.6249 79.4611 93.6249 78.7258 93.6249C78.7258 91.0046 78.7258 88.5369 78.7258 85.9675C78.0109 85.9675 77.4186 85.9675 76.7037 85.9675C76.7037 84.2376 76.7037 82.6095 76.7037 80.905C75.9889 80.905 75.3965 80.905 74.6817 80.905C74.7225 78.361 74.7225 75.8934 74.7225 73.2222ZM123.64 93.6503C122.926 93.6503 122.333 93.6503 121.618 93.6503C121.618 97.0847 121.618 100.392 121.618 103.826C120.903 103.826 120.291 103.826 119.596 103.826C119.596 107.235 119.596 110.568 119.596 114.028C118.861 114.028 118.228 114.028 117.533 114.028C117.533 114.918 117.533 115.656 117.533 116.546C116.839 116.546 116.206 116.546 115.511 116.546C115.511 117.437 115.511 118.174 115.511 119.065C114.122 119.065 112.815 119.065 111.508 119.065C111.508 119.955 111.508 120.693 111.508 121.507C120.352 121.507 129.135 121.507 137.938 121.507C137.938 120.667 137.938 119.879 137.938 119.014C135.895 119.014 133.935 119.014 131.872 119.014C131.872 118.123 131.872 117.36 131.872 116.444C131.136 116.444 130.503 116.444 129.911 116.444C129.911 112.171 129.911 108.024 129.911 103.724C130.605 103.724 131.218 103.724 131.933 103.724C131.933 100.29 131.933 96.983 131.933 93.5486C132.627 93.5486 133.261 93.5486 133.955 93.5486C133.955 90.1142 133.955 86.8325 133.955 83.3981C134.649 83.3981 135.283 83.3981 136.018 83.3981C136.018 80.7778 136.018 78.3102 136.018 75.8425C140.818 75.8425 145.495 75.8425 150.295 75.8425C150.295 76.682 150.295 77.4706 150.295 78.3356C151.01 78.3356 151.602 78.3356 152.317 78.3356C152.317 82.6095 152.317 86.7816 152.317 90.9537C153.052 90.9537 153.686 90.9537 154.38 90.9537C154.38 88.4352 154.38 85.9675 154.38 83.4744C155.074 83.4235 155.708 83.3981 156.443 83.3472C156.443 80.7778 156.443 78.2847 156.443 75.7153C157.158 75.7153 157.75 75.7153 158.465 75.7153C158.465 72.2809 158.465 68.9737 158.465 65.5648C159.18 65.5648 159.793 65.5648 160.405 65.5648C160.405 62.9954 160.405 60.5277 160.405 58.0601C159.711 58.0601 159.098 58.0601 158.383 58.0601C158.383 59.7645 158.383 61.3418 158.383 63.0972C157.668 63.0972 157.056 63.0972 156.361 63.0972C156.361 63.9876 156.361 64.7253 156.361 65.6157C155.667 65.6157 155.034 65.6157 154.339 65.6157C154.339 66.5061 154.339 67.2438 154.339 68.1342C152.95 68.1342 151.643 68.1342 150.234 68.1342C150.234 69.0501 150.234 69.8387 150.234 70.6019C146.108 70.6019 142.105 70.6019 138.081 70.6019C138.081 68.0579 138.081 65.5903 138.081 62.97C138.775 62.97 139.388 62.97 140.103 62.97C140.103 59.5356 140.103 56.2284 140.103 52.794C140.818 52.794 141.431 52.794 142.125 52.794C142.125 49.3597 142.125 46.0779 142.125 42.6436C142.819 42.6436 143.453 42.6436 144.188 42.6436C144.188 40.0233 144.188 37.5556 144.188 35.1134C152.399 35.1134 160.487 35.1134 168.678 35.1134C168.678 35.9529 168.678 36.7415 168.678 37.6574C169.413 37.6574 170.046 37.6574 170.74 37.6574C170.74 41.9313 170.74 46.0779 170.74 50.2246C171.435 50.2246 172.068 50.2246 172.763 50.2246C172.763 49.3851 172.763 48.6474 172.763 47.757C173.457 47.757 174.09 47.757 174.825 47.757C174.825 42.5927 174.825 37.5811 174.825 32.4677C175.54 32.4677 176.153 32.4677 176.745 32.4677C176.745 31.6027 176.745 30.8141 176.745 30.0763C159.711 30.0763 142.738 30.0763 125.805 30.0763C125.805 30.9158 125.805 31.679 125.805 32.5694C127.848 32.5694 129.829 32.5694 131.892 32.5694C131.892 33.4598 131.892 34.223 131.892 35.1134C132.587 35.1134 133.22 35.1134 133.832 35.1134C133.832 37.7337 133.832 40.2014 133.832 42.7708C133.158 42.7708 132.546 42.7708 131.831 42.7708C131.831 46.2051 131.831 49.5123 131.831 52.9467C131.116 52.9467 130.524 52.9467 129.788 52.9467C129.788 56.3811 129.788 59.6882 129.788 63.0972C129.073 63.0972 128.461 63.0972 127.766 63.0972C127.766 66.5061 127.766 69.8387 127.766 73.2985C127.031 73.2985 126.398 73.2985 125.703 73.2985C125.703 76.7329 125.703 80.0146 125.703 83.4235C125.029 83.4235 124.417 83.4235 123.64 83.4235C123.64 86.9088 123.64 90.216 123.64 93.6503ZM191.063 106.319C191.063 108.94 191.063 111.407 191.063 113.977C190.348 113.977 189.756 113.977 189.041 113.977C189.041 114.842 189.041 115.63 189.041 116.495C188.326 116.495 187.734 116.495 187.019 116.495C187.019 117.36 187.019 118.149 187.019 119.065C184.915 119.065 182.934 119.065 180.973 119.065C180.973 119.955 180.973 120.718 180.973 121.456C190.512 121.456 199.989 121.456 209.466 121.456C209.466 120.617 209.466 119.879 209.466 118.988C207.444 118.988 205.443 118.988 203.339 118.988C203.339 118.073 203.339 117.284 203.339 116.419C202.624 116.419 202.011 116.419 201.398 116.419C201.398 113.01 201.398 109.677 201.398 106.268C202.072 106.268 202.665 106.268 203.38 106.268C203.38 102.86 203.38 99.5269 203.38 96.0671C204.115 96.0671 204.748 96.0671 205.443 96.0671C205.443 92.6328 205.443 89.3256 205.443 85.8912C206.137 85.8912 206.77 85.8912 207.465 85.8912C207.465 82.4568 207.465 79.1497 207.465 75.7407C208.159 75.7407 208.792 75.7407 209.528 75.7407C209.528 72.2809 209.528 68.9483 209.528 65.5394C210.242 65.5394 210.835 65.5394 211.55 65.5394C211.55 62.1305 211.55 58.7978 211.55 55.3889C212.264 55.3889 212.857 55.3889 213.572 55.3889C213.572 51.98 213.572 48.6474 213.572 45.1876C214.307 45.1876 214.94 45.1876 215.635 45.1876C215.635 41.7532 215.635 38.4714 215.635 35.1643C220.435 35.1643 225.132 35.1643 229.932 35.1643C229.932 36.0038 229.932 36.767 229.932 37.6319C230.627 37.6319 231.26 37.6319 231.995 37.6319C231.995 42.7962 231.995 47.8078 231.995 52.794C232.71 52.794 233.323 52.794 234.017 52.794C234.017 51.9291 234.017 51.1659 234.017 50.3009C234.732 50.3009 235.324 50.3009 236.039 50.3009C236.039 46.0271 236.039 41.8549 236.039 37.5556C236.774 37.5556 237.408 37.5556 238 37.5556C238 34.9608 238 32.5185 238 30.0763C220.292 30.0763 202.644 30.0763 184.895 30.0763C184.895 30.9413 184.895 31.7299 184.895 32.5949C184.18 32.5949 183.588 32.5949 182.873 32.5949C182.873 36.0038 182.873 39.3364 182.873 42.7453C182.158 42.7453 181.566 42.7453 180.933 42.7453C180.933 45.3147 180.933 47.7824 180.933 50.2501C181.627 50.2501 182.26 50.2501 182.955 50.2501C182.955 49.4106 182.955 48.6474 182.955 47.757C183.649 47.757 184.282 47.757 184.977 47.757C184.977 46.0271 184.977 44.4244 184.977 42.6945C185.671 42.6945 186.304 42.6945 187.04 42.6945C187.04 41.7786 187.04 40.99 187.04 40.125C187.754 40.125 188.347 40.125 189.062 40.125C189.062 39.2601 189.062 38.4714 189.062 37.5556C189.797 37.5556 190.43 37.5556 191.125 37.5556C191.125 36.6652 191.125 35.902 191.125 35.1643C195.924 35.1643 200.622 35.1643 205.32 35.1643C205.32 38.5478 205.32 41.8549 205.32 45.2893C204.646 45.2893 204.013 45.2893 203.318 45.2893C203.318 48.7237 203.318 52.0309 203.318 55.4398C202.624 55.4398 201.991 55.4398 201.255 55.4398C201.255 58.8996 201.255 62.2322 201.255 65.6411C200.541 65.6411 199.948 65.6411 199.233 65.6411C199.233 69.0501 199.233 72.3827 199.233 75.7916C198.518 75.7916 197.926 75.7916 197.211 75.7916C197.211 79.226 197.211 82.5332 197.211 85.993C196.476 85.993 195.843 85.993 195.148 85.993C195.148 89.4273 195.148 92.7345 195.148 96.1434C194.433 96.1434 193.821 96.1434 193.126 96.1434C193.126 99.5778 193.126 102.86 193.126 106.294C192.432 106.319 191.819 106.319 191.063 106.319Z" fill="#11191F"/>
</svg>
