<svg width="281" height="158" viewBox="0 0 281 158" fill="none" xmlns="http://www.w3.org/2000/svg">
<path d="M159.559 57.664C161.035 59.3601 161.371 61.3274 160.364 63.2269C159.593 64.657 157.959 64.4054 156.643 64.2028L156.472 64.1767C155.442 64.0609 155.828 63.5007 156.172 63.0016C156.231 62.9158 156.289 62.8317 156.338 62.7521C158.955 64.3802 159.894 63.2948 159.827 60.5812C159.794 60.1064 159.743 59.6146 159.693 59.1228C159.643 58.6309 159.593 58.139 159.559 57.664Z" fill="#11191F"/>
<path d="M159.022 57.0535C158.284 57.3248 157.613 57.664 157.345 58.4103C156.942 58.6136 156.557 58.8001 156.171 58.9865L156.171 58.9869C155.785 59.1735 155.399 59.3601 154.996 59.5636C156.204 55.2218 156.607 55.0183 159.022 57.0535Z" fill="#11191F"/>
<path d="M155.198 50.0659C156.747 49.9579 156.637 50.8389 156.528 51.7161C156.5 51.9407 156.472 52.1651 156.472 52.3725C156.741 53.2544 157.009 54.3399 155.667 54.4077C154.325 54.4756 153.789 53.3901 153.654 52.2368C153.587 51.0835 154.057 50.2016 155.198 50.0659Z" fill="#11191F"/>
<path d="M90.7295 101.414C90.6992 101.412 90.6687 101.41 90.6379 101.408C89.5932 101.348 88.3139 101.274 88.5022 100.132C88.699 98.6723 90.3081 98.5105 91.6342 98.3772L91.7229 98.3682C92.7293 98.3004 94.0713 98.3682 94.0042 99.725C93.85 101.128 92.7903 101.218 91.76 101.305C91.4452 101.331 91.1332 101.358 90.8506 101.421C90.8108 101.419 90.7704 101.416 90.7295 101.414Z" fill="#11191F"/>
<path d="M146.274 39.3472C145.133 41.7216 139.295 43.1462 137.081 41.5181C136.209 40.9075 135.873 39.8899 136.947 39.415C138.382 38.6894 138.325 37.5864 138.248 36.1061C138.239 35.9257 138.229 35.7397 138.222 35.5481C140.288 37.5105 142.529 37.3464 144.455 37.2055C144.593 37.1954 144.73 37.1854 144.864 37.1763C147.414 36.9049 147.012 37.8547 146.274 39.3472Z" fill="#11191F"/>
<path fill-rule="evenodd" clip-rule="evenodd" d="M140.168 -0.000261174C104.27 -0.0681015 70.3187 7.19081 44.5531 20.4197C15.8351 35.141 0 55.7644 0 78.6266C0 101.489 15.7009 122.248 44.2847 137.105C69.9832 150.469 103.935 157.932 139.832 158C175.73 158.068 209.748 150.809 235.514 137.58C264.232 122.858 280.067 102.235 280.067 79.3729C280.067 56.5107 264.366 35.7516 235.782 20.8945C210.017 7.53001 176.065 0.0675791 140.168 -0.000261174ZM84.6019 123.445C86.491 125.96 88.3677 128.458 90.7836 130.457C91.7901 131.339 92.4611 132.492 92.8637 133.781C93.6688 137.987 92.9308 139.276 89.5088 138.733C81.6583 136.969 74.1433 134.799 67.2322 132.221C56.2953 128.15 45.9622 122.859 36.4342 115.668C26.0341 107.866 17.5126 98.3683 14.6945 85.0038C12.2119 73.4709 15.701 63.4306 22.9475 54.4756C23.8869 53.3224 24.7592 52.5083 25.2289 54.8148C25.5644 56.1716 26.6379 56.9857 27.7786 57.3249C31.4059 58.4348 32.9284 61.2953 34.4469 64.1484C35.0632 65.3063 35.6788 66.463 36.4342 67.501C36.8552 68.1157 37.0153 68.9283 37.1646 69.6858C37.2295 70.015 37.2923 70.3339 37.3736 70.6216C37.3289 70.8704 37.2916 71.0965 37.2568 71.3076C37.1872 71.7297 37.1276 72.0915 37.0381 72.4533C35.6291 77.27 36.7026 79.0338 40.5272 82.358C42.088 83.7291 43.8048 84.8831 45.5178 86.0345C48.297 87.9026 51.0661 89.764 53.1416 92.534C53.3516 92.817 53.6101 93.0836 53.8666 93.348C54.3479 93.8443 54.822 94.3331 54.9533 94.9084C56.0269 99.5216 59.5831 100.336 63.4076 100.539C68.0374 100.743 71.9962 102.1 74.9485 106.102C76.4918 108.205 78.9073 109.291 81.7254 108.612C82.9332 108.273 84.0067 108.68 84.5435 109.765C85.0567 110.803 84.3433 111.593 83.6932 112.312L83.6041 112.411C79.8467 116.549 79.8467 117.16 83.3358 121.773C83.7618 122.327 84.1813 122.885 84.6002 123.443L84.6019 123.445ZM255.375 102.71C252.892 101.914 252.923 100.123 252.953 98.4348C252.956 98.253 252.959 98.0714 252.959 97.8933C252.959 95.926 251.886 95.1797 250.477 96.0616C249.583 96.5902 248.635 97.0645 247.686 97.5396C244.005 99.382 240.3 101.236 239.607 106.306C239.473 107.187 239.07 108.137 238.131 108.341C236.923 108.68 236.252 107.798 235.715 106.916C234.507 104.949 233.769 102.846 233.3 100.607C232.562 97.1471 227.798 92.8053 224.376 93.2802C220.819 93.7551 218.068 92.4661 215.25 90.7701C214.127 90.0667 212.917 89.4928 211.691 88.9107C211.38 88.7631 211.067 88.6145 210.755 88.4635C209.882 88.0565 208.943 87.9886 208.406 89.0062C207.937 89.8882 207.534 91.0415 208.473 91.8555C208.705 92.068 208.929 92.2955 209.154 92.5231C210.364 93.7487 211.578 94.9778 213.841 93.8907C215.988 92.8731 218.001 94.2978 218.874 96.0616C219.677 97.5701 218.321 98.4832 217.156 99.2676C216.959 99.4004 216.767 99.5295 216.592 99.6572C214.579 101.014 212.432 102.235 210.285 103.456C207.266 105.152 204.716 104.338 202.569 101.76C198.476 96.74 196.06 90.9736 195.926 84.461C195.859 81.8152 195.389 80.6619 192.638 81.2725C192.218 81.3498 191.775 81.339 191.323 81.3279C190.982 81.3196 190.636 81.3111 190.29 81.3403C188.277 81.4081 187.069 80.7297 187.405 78.3553C187.416 78.2836 187.43 78.2093 187.444 78.1331C187.585 77.3449 187.762 76.3641 186.599 76.1166C185.459 75.8452 184.721 76.5915 184.251 77.6091C184.139 77.8363 184.079 78.1165 184.018 78.3978C183.862 79.1243 183.705 79.8588 182.641 79.7121C181.617 79.5294 181.296 78.5813 180.998 77.7021C180.964 77.6021 180.93 77.5025 180.896 77.4056C180.024 75.0312 178.011 74.4884 175.931 74.0135C176.307 74.7199 176.812 75.2086 177.309 75.6889C177.432 75.8081 177.555 75.9274 177.675 76.0488C178.816 77.1342 179.286 78.4232 177.944 79.5086C176.659 80.5476 175.867 79.4732 175.095 78.4274L174.991 78.2875C174.79 78.0161 174.593 77.7405 174.396 77.4649C173.805 76.6382 173.213 75.8112 172.509 75.099C169.422 71.9105 165.061 72.4532 162.914 76.2523C161.035 79.5086 158.552 81.6795 154.594 81.2046C154.532 81.1963 154.47 81.1882 154.408 81.1802C153.458 81.0565 152.489 80.9304 152.111 79.8478C151.853 79.0129 152.389 78.5793 152.925 78.1458C153.086 78.0157 153.247 77.8857 153.386 77.7448C154.005 77.1568 154.655 76.5848 155.308 76.0109C156.99 74.532 158.686 73.0404 159.894 71.2321C161.404 68.8685 162.525 66.2546 163.642 63.6501C164.064 62.6663 164.485 61.684 164.927 60.7169C165.008 60.5379 165.079 60.3421 165.151 60.1443C165.431 59.3676 165.722 58.5597 166.738 58.6138C168.421 58.7447 168.481 57.6767 168.543 56.566L168.55 56.4429C168.56 56.299 168.566 56.1551 168.573 56.0118C168.614 55.1416 168.654 54.2926 169.288 53.5936C169.793 52.9815 170.263 53.2558 170.76 53.545C171.253 53.8326 171.772 54.135 172.375 53.5936C172.16 53.2684 172.117 52.8046 172.075 52.3462C171.984 51.3702 171.895 50.4184 170.16 50.88C170.017 50.919 169.876 50.9588 169.737 50.9982C168.176 51.4386 166.841 51.8153 165.732 50.1338C164.457 48.2343 164.994 46.199 166.47 44.9101C169.61 42.0983 171.7 38.5287 173.783 34.9712C174.816 33.2071 175.848 31.4459 177.004 29.7817C179.353 26.3897 182.909 25.1686 186.801 24.6937C188.008 24.558 189.35 24.8972 189.418 26.1862C189.478 28.8561 191.255 29.1379 192.974 29.4104C193.177 29.4425 193.379 29.4745 193.578 29.5103C196.463 29.9852 198.543 31.4777 199.818 34.0556C200.22 34.8019 200.287 35.616 199.751 36.2944C199.17 37.0772 198.403 36.7936 197.689 36.5293L197.604 36.4979C197.46 36.4414 197.316 36.383 197.172 36.3243C196.102 35.8893 194.988 35.4366 193.511 35.616C193.699 36.0931 193.872 36.5595 194.041 37.0151C194.472 38.1791 194.878 39.2731 195.456 40.2969C196.329 41.7894 198.073 42.4678 199.013 40.9753C200.173 39.1316 201.923 38.0498 203.672 36.9688C205.463 35.8621 207.252 34.7563 208.406 32.8345C209.077 31.7491 210.688 30.8671 211.56 32.8345C212.499 34.9376 213.573 34.6662 214.781 33.2416C215.519 32.4275 216.458 32.2239 217.465 32.0883C217.594 32.0782 217.73 32.0741 217.867 32.07C218.648 32.0464 219.457 32.0221 219.343 30.8671C219.332 30.6799 219.33 30.4866 219.328 30.2922C219.321 29.3593 219.313 28.3991 218.203 27.95C217.642 27.744 217.121 27.4989 216.579 27.2444L216.578 27.2439C216.406 27.1633 216.233 27.0818 216.055 27.0002C211.895 25.3042 207.668 23.8118 203.374 22.4549C185.794 17.1634 165.396 13.9749 143.59 13.5679C141.375 14.3141 140.168 16.2815 139.027 18.181C138.893 18.403 138.739 18.6345 138.58 18.8743C137.618 20.3202 136.457 22.0663 138.356 23.8118C139.228 24.6258 139.765 25.4399 139.027 26.3897C138.253 27.3527 137.426 26.7672 136.688 26.2438C136.594 26.1773 136.501 26.1117 136.41 26.0505C136.344 26.0033 136.278 25.9548 136.212 25.9067C135.619 25.4704 135.069 25.0661 134.464 25.9826C133.86 26.9324 134.196 27.8143 135.001 28.357C135.419 28.6384 135.9 28.7901 136.468 28.969C136.721 29.0489 136.992 29.1342 137.282 29.239C135.94 29.7817 135.001 30.4601 134.129 31.2742C133.145 32.1032 131.983 32.6621 130.81 33.226C129.104 34.0463 127.377 34.8771 126.144 36.5657C125.946 36.8232 125.462 36.8635 124.897 36.9105C124.123 36.975 123.198 37.052 122.655 37.719C120.307 40.704 118.227 43.8246 117.354 47.6237C117.336 47.7031 117.317 47.7856 117.298 47.8703C117.042 49.0155 116.702 50.5384 115.14 49.5911C113.65 48.679 112.893 47.1644 112.119 45.6161C111.57 44.5155 111.011 43.398 110.175 42.4678C109.301 41.5402 110.049 41.2454 110.806 40.9465C111.212 40.7864 111.621 40.6251 111.785 40.3648C112.255 39.6864 111.852 39.008 111.45 38.5331C108.766 35.6838 109.37 32.7667 110.913 29.5103C112.389 26.5254 111.181 24.2188 108.095 23.2012C106.955 22.8172 107.001 22.2114 107.06 21.4197C107.074 21.2324 107.088 21.0345 107.088 20.8268C107.223 18.4524 105.948 16.6207 104.002 16.1458C96.621 17.2991 89.5086 18.7237 82.7317 20.4876C82.3962 20.6911 82.1949 21.0303 82.262 21.5052C82.3291 21.8444 82.933 22.4549 83.0001 22.3871C84.3786 21.7064 85.4815 22.4505 86.6013 23.2061C87.8253 24.032 89.0695 24.8715 90.7164 23.8796C91.3874 23.4726 92.9977 25.1686 92.528 26.1183C91.433 28.6094 92.7952 29.4743 94.2085 30.3717C94.5272 30.5741 94.8485 30.7781 95.1449 31.0028C95.95 31.6134 96.7552 32.2239 97.4933 32.9023C99.6404 34.9376 99.5062 42.4678 97.292 44.2995C97.1578 44.4352 96.9565 44.5709 96.7552 44.7066C94.4739 45.8598 90.3138 44.9101 88.9718 42.6035C88.0996 41.111 87.1602 40.4326 85.5498 40.704C84.8789 40.8397 84.1408 40.6361 84.0066 39.8221C83.8853 39.0862 84.4218 38.7938 84.972 38.4939C85.0305 38.462 85.0892 38.43 85.1473 38.3974C87.026 37.3798 88.9047 36.7014 91.119 37.1084C90.9169 36.0871 90.2525 35.73 89.6387 35.4001C89.2333 35.1822 88.8499 34.9762 88.6364 34.5984C85.9524 29.8495 81.9266 27.8822 76.5587 28.5606C75.2167 28.6963 73.9419 27.8822 73.7406 26.254C73.6064 25.1686 73.338 24.151 72.1973 23.8796C71.1109 23.6299 70.715 24.3358 70.3142 25.0504C70.1704 25.3067 70.026 25.5642 69.8489 25.7791C69.7025 25.9469 69.5575 26.1333 69.4109 26.3219C68.5493 27.4297 67.6297 28.6122 66.0243 26.5254C65.6217 25.9826 65.0849 25.9826 64.5482 26.1183C64.414 26.3897 64.2798 26.4575 64.2127 26.4575C64.0449 26.5254 63.8772 26.6102 63.7094 26.695C63.5417 26.7798 63.3739 26.8646 63.2062 26.9324C59.3145 28.6284 55.4228 30.3923 51.5983 32.2239C51.3718 32.3384 51.1359 32.4433 50.8964 32.5499C49.8582 33.0118 48.7508 33.5044 48.0421 34.9376C48.6521 34.9581 49.2436 34.8977 49.8147 34.8393C51.1283 34.7051 52.3343 34.5819 53.4099 35.4803C53.6783 35.6838 54.148 35.6838 54.2151 35.2768C54.4134 32.2183 55.8579 32.9025 57.167 33.5225C57.6292 33.7415 58.0746 33.9524 58.4422 33.9878C58.9125 34.0274 59.3884 34.1364 59.8651 34.2456C61.0208 34.5104 62.1807 34.7761 63.2733 34.0556C64.8837 32.9702 66.2927 32.9702 67.5005 34.734C67.6133 34.4775 67.726 34.2808 67.8189 34.1189C67.947 33.8954 68.0373 33.7381 68.0373 33.5807C68.0576 33.375 68.0702 33.1646 68.0829 32.9539C68.1536 31.7758 68.2247 30.5916 69.6476 30.1887C71.3251 29.7817 72.3315 30.935 73.1367 32.2239C73.4051 32.5631 73.6735 32.9024 74.009 33.2416C75.3509 34.6662 76.4916 35.0054 76.5587 32.4275C76.6258 30.5279 77.6994 31.0028 78.5045 31.6134C79.8465 32.5631 80.5846 33.8521 79.9807 35.6838C79.8821 35.983 79.7432 36.2944 79.6015 36.612C79.1648 37.5908 78.7018 38.6287 79.3097 39.5507C80.6833 41.5181 79.8602 41.9061 78.5475 42.5249C78.3212 42.6316 78.0802 42.7452 77.8336 42.8749L77.7598 42.9122C76.3236 43.6388 75.3285 44.1422 74.009 42.8749C73.2709 42.1286 72.4657 42.6035 71.9289 43.0784C69.5805 44.9779 67.4334 47.1488 66.0914 49.8624C65.2862 51.4227 65.3533 53.6615 66.7624 54.5434C68.4398 55.4932 69.4463 53.5936 70.0502 52.169C70.7883 50.4051 71.9289 50.6087 72.8683 51.6941C73.5855 52.5368 74.4594 53.2663 75.3349 53.997C77.49 55.7958 79.6542 57.6022 79.511 61.1239C79.4439 61.938 80.4504 62.7521 81.3898 62.7521C82.3038 62.7521 82.4431 61.9129 82.5615 61.1998C82.5734 61.1277 82.5852 61.0568 82.5975 60.9882C82.7644 59.9128 83.0933 58.857 83.4231 57.7985C84.1543 55.4516 84.8897 53.0911 83.8724 50.473C83.6327 49.7944 83.804 48.9427 83.9703 48.1158C84.0368 47.7854 84.1025 47.4587 84.1408 47.1488C84.3421 45.4528 85.4827 44.5709 86.8918 45.0458C87.0458 45.0963 87.2009 45.1462 87.3563 45.1964C89.7072 45.9542 92.1588 46.7445 92.6622 49.8624C92.6847 50.0102 92.6997 50.1676 92.715 50.3288C92.791 51.1289 92.8759 52.0223 93.9371 52.3047C96.7552 48.9127 97.0907 48.777 98.7682 51.8976C99.048 52.4231 99.304 52.9593 99.5583 53.4918C100.584 55.6405 101.582 57.73 104.002 58.8173C104.108 58.8708 104.172 59.0926 104.227 59.2839C104.242 59.3354 104.256 59.3847 104.27 59.4279C104.807 61.8701 105.881 64.1089 107.491 66.0084C108.028 66.619 108.296 67.3652 107.826 68.1793C107.357 68.9934 106.552 68.9934 105.746 68.8577C105.702 68.8476 105.656 68.8376 105.611 68.8274C105.57 68.8185 105.529 68.8095 105.488 68.8005C104.328 68.5447 102.962 68.2438 102.526 67.2974C101.131 64.0818 99.0398 64.713 96.8703 65.3679C96.4309 65.5006 95.9882 65.6342 95.5474 65.737C96.3409 66.2073 96.7216 67.0612 97.0989 67.9076C97.6469 69.1368 98.1878 70.3502 99.9759 70.3502C100.043 70.3502 100.311 71.1643 100.177 71.5035C99.8417 72.7246 95.0778 74.4884 94.6081 73.5387C93.365 70.9746 92.4166 71.9501 91.49 72.9032C91.1663 73.2362 90.8452 73.5665 90.5151 73.7422C89.7374 74.1524 89.8798 74.8899 90.015 75.5902C90.1481 76.2796 90.2742 76.9328 89.5086 77.202C87.4271 77.9962 86.2421 79.6271 85.0521 81.2649C84.2091 82.4252 83.3635 83.5889 82.1949 84.461C80.4504 85.7499 79.2426 87.2424 80.853 89.549C81.2556 90.0917 81.3227 90.8379 80.7188 91.4485C80.1149 91.9912 79.3768 91.7877 78.9071 91.3128C76.3574 88.4635 73.6064 87.1067 69.916 89.1419C69.6956 89.2533 69.3848 89.1818 69.0949 89.1151C69.0519 89.1052 69.0094 89.0954 68.9678 89.0863C68.9482 89.0821 68.9287 89.078 68.9095 89.0741C66.4269 88.5992 64.8166 89.7525 63.9443 91.9912C63.072 94.23 64.2798 95.9938 65.6217 97.4184C67.2192 99.0934 68.6601 98.0255 70.0366 97.0054C70.2211 96.8686 70.4045 96.7327 70.587 96.6044C72.1973 95.5189 74.009 95.5189 74.009 97.6898C74.0761 99.9285 75.0826 100.607 76.76 101.15C77.6323 101.421 78.2362 102.099 78.6387 102.981C80.3833 106.916 82.4633 107.866 86.2208 105.695C90.8265 103.087 95.0949 104.855 99.129 106.526C99.5028 106.68 99.8745 106.834 100.244 106.984C102.593 107.934 106.216 109.562 105.948 113.7C105.881 114.446 106.82 114.853 107.491 114.514C110.108 112.954 111.383 113.361 111.181 116.685C111.181 116.889 111.785 117.296 111.919 117.296C113.835 116.489 115.442 117.217 117.036 117.941C118.123 118.434 119.204 118.924 120.374 118.924C122.588 118.924 124.4 120.009 126.211 121.23C128.09 122.452 128.493 123.74 126.144 124.962C124.668 125.708 123.527 126.658 123.594 128.557C123.93 134.052 122.32 138.123 116.214 139.072C115.006 139.276 114.066 140.226 114.134 141.786C114.134 142.532 114.402 142.939 114.737 143.211C122.789 144.093 131.109 144.5 139.631 144.567H141.442C151.977 144.5 162.243 143.821 172.039 142.464C174.723 141.311 175.73 138.53 173.717 135.952C171.167 132.763 171.637 129.982 173.381 126.997C174.32 125.369 174.186 124.012 173.046 122.723C172.856 122.513 172.664 122.303 172.471 122.094C170.551 120.008 168.617 117.905 169.288 114.514C169.341 114.193 168.976 113.787 168.655 113.43C168.569 113.335 168.486 113.243 168.416 113.157C166.822 110.761 164.68 111.032 162.537 111.304C161.161 111.478 159.785 111.652 158.552 111.122C158.284 110.987 157.882 111.054 157.546 111.122C157.479 111.122 157.345 111.258 157.278 111.326C155.265 115.057 152.916 113.293 150.769 111.597C149.661 110.684 148.679 109.619 147.699 108.557C147.077 107.883 146.455 107.209 145.804 106.577L145.701 106.477C143.993 104.815 143.137 103.983 143.103 103.118C143.069 102.252 143.861 101.353 145.448 99.5531L145.535 99.4537C146.072 98.7753 146.81 97.7577 146.676 97.0792C146.287 95.288 147.206 94.1439 148.071 93.0671C148.549 92.4718 149.011 91.8971 149.226 91.245C150.424 87.1271 152.317 88.1445 154.427 89.279C154.681 89.4153 154.938 89.5536 155.198 89.6847C155.239 89.7269 155.333 89.6375 155.479 89.4984C155.568 89.4143 155.675 89.312 155.801 89.2098C155.576 89.0472 155.367 88.8691 155.165 88.6978C154.946 88.5116 154.736 88.3335 154.527 88.1922C154.406 88.1236 154.28 88.0551 154.153 87.9855C153.144 87.4352 152.015 86.8185 152.312 85.6142C152.715 84.1217 154.392 83.9861 155.734 84.0539C157.472 84.1543 158.989 83.5863 160.53 83.0092C161.072 82.8063 161.617 82.6022 162.176 82.4258C166.806 81.0011 169.355 81.883 172.173 85.6821C173.113 86.9032 174.321 87.5138 175.931 87.5816C177.455 87.6057 178.978 87.4418 180.502 87.278C183.273 86.9801 186.043 86.6822 188.814 87.5138C189.082 87.5816 189.485 87.5138 189.82 87.3781C192.437 86.3605 193.443 87.7851 194.047 90.0917C194.229 90.736 194.387 91.4052 194.545 92.0778C194.969 93.8836 195.4 95.7137 196.329 97.1471C196.925 98.0514 197.461 99.036 197.999 100.024C200.124 103.926 202.275 107.878 208.272 107.12C210.553 106.848 211.023 108.612 210.352 110.579C209.748 112.411 208.339 113.497 206.729 114.379C206.513 114.502 206.296 114.626 206.078 114.75C204.271 115.782 202.434 116.831 200.757 118.042C198.476 119.738 197.671 122.316 199.281 124.555C201.227 127.2 200.153 128.964 198.61 130.796C198.006 131.542 197.335 132.221 196.664 132.899C195.993 133.577 195.322 134.256 194.718 135.002C193.913 135.952 193.175 137.241 194.785 138.123C194.852 138.156 194.903 138.173 194.953 138.19C195.003 138.207 195.054 138.224 195.121 138.258C196.798 137.851 198.409 137.444 200.019 136.969C201.495 136.155 202.703 135.07 202.904 134.12C203.489 131.822 205.079 130.35 206.641 128.904L206.796 128.761C207.668 128.014 208.943 128.014 209.95 128.693C210.822 129.303 210.553 130.253 210.151 131.135C210.059 131.34 209.906 131.544 209.753 131.75C209.346 132.296 208.932 132.851 209.614 133.442C209.815 133.645 210.084 133.713 210.285 133.713C213.506 132.628 216.592 131.406 219.545 130.185C227.865 126.59 235.782 122.248 243.163 116.753C247.39 113.632 251.416 110.172 254.704 106.034C255.777 104.745 256.985 103.253 255.375 102.71ZM232.964 36.023C232.763 37.1763 232.025 37.7869 230.884 37.7869C230.146 37.7869 229.005 37.7869 229.14 36.7693C229.247 35.8471 230.126 35.5756 230.921 35.3304C231.12 35.2689 231.313 35.2091 231.488 35.1411C232.226 34.8019 232.83 35.1411 232.964 36.023Z" fill="#11191F"/>
</svg>
