<svg width="250" height="250" viewBox="0 0 250 250" fill="none" xmlns="http://www.w3.org/2000/svg">
<path d="M120.682 44.635C120.682 31.2986 120.682 17.9622 120.682 4.70285C120.682 0.848396 122.147 -0.539208 125.54 0.308773C126.774 0.617129 127.776 2.236 128.701 3.39234C129.01 3.77778 128.856 4.62576 128.856 5.24248C128.856 31.7611 128.856 58.2798 128.856 84.7984C128.856 87.7278 128.239 89.8092 124.692 89.8092C120.99 89.8092 120.682 87.4195 120.682 84.6443C120.682 71.2308 120.682 57.8943 120.682 44.635ZM120.682 243.833C120.682 246.84 120.296 250 124.846 250C129.164 250 128.779 246.84 128.779 244.065C128.779 235.122 128.779 226.103 128.779 217.16C128.779 200.124 128.779 183.087 128.779 166.05C128.779 161.656 127.39 160.423 123.689 160.962C120.605 161.425 120.682 163.661 120.682 165.819C120.682 179.001 120.682 192.184 120.682 205.443C120.682 218.163 120.682 231.036 120.682 243.833ZM148.365 152.251C148.057 153.254 148.674 154.95 149.522 155.798C153.84 160.346 158.313 164.74 162.785 169.211C177.745 184.012 192.705 198.813 207.588 213.614C209.824 215.85 211.521 215.696 213.68 213.46C215.839 211.225 214.836 209.76 213.063 207.987C193.862 188.792 174.661 169.519 155.46 150.324C154.688 149.553 153.686 149.014 151.295 147.164C150.293 148.859 148.905 150.478 148.365 152.251ZM156.539 98.9828C175.355 80.2502 194.093 61.5175 212.909 42.862C214.528 41.3202 216.456 40.0097 213.988 37.6199C211.829 35.5385 210.055 34.1509 207.279 36.9261C188.155 56.1984 168.877 75.3165 149.753 94.5888C148.905 95.4367 147.903 97.364 148.288 98.0578C149.136 99.5995 150.833 100.756 152.452 102.298C153.994 100.987 155.382 100.062 156.539 98.9828ZM34.7779 38.7762C34.5466 40.0097 35.549 41.8598 36.5515 42.9391C55.4442 61.903 74.4139 80.8669 93.3066 99.7537C94.926 101.373 96.4682 103.377 99.0129 100.679C101.172 98.3661 101.866 96.2076 99.0129 93.895C97.6249 92.8157 96.4682 91.4281 95.1573 90.1176C77.4985 72.4642 59.7625 54.8108 42.1036 37.1574C41.2554 36.3094 40.1758 35.6156 37.554 33.6113C36.5515 35.4614 35.0864 37.0032 34.7779 38.7762ZM98.0105 149.322C96.3911 149.245 94.3091 150.016 93.1524 151.172C74.1826 169.905 55.3671 188.869 36.3973 207.678C34.2381 209.837 33.9297 211.533 36.2431 213.769C38.4793 216.004 40.0987 215.464 42.1036 213.46C61.2276 194.265 80.3516 175.147 99.5527 156.029C100.324 155.258 100.941 154.256 102.791 151.789C101.095 150.864 99.6298 149.399 98.0105 149.322ZM204.889 129.125C210.672 129.125 216.456 129.125 222.162 129.125C229.951 129.125 237.816 129.202 245.605 129.048C249.075 128.971 251.002 126.427 249.306 123.806C248.458 122.418 245.759 121.493 243.908 121.493C217.921 121.339 191.857 121.416 165.87 121.416C165.099 121.416 164.328 121.416 163.556 121.493C160.935 121.647 160.009 123.112 160.086 125.579C160.163 128.893 162.4 129.125 164.867 129.125C178.285 129.125 191.626 129.125 204.889 129.125ZM61.3047 129.125C69.2474 129.125 77.19 129.125 85.1326 129.048C87.3689 129.048 88.834 128.123 88.9112 125.656C88.9883 123.266 87.9087 121.724 85.4411 121.493C84.6699 121.416 83.8988 121.416 83.1277 121.416C57.2178 121.416 31.3849 121.416 5.47501 121.416C4.47255 121.416 3.08452 121.185 2.46761 121.724C1.38803 122.649 0 124.114 0 125.347C0 126.581 1.38803 128.123 2.62184 128.816C3.54719 129.433 5.08945 129.125 6.40037 129.125C19.0469 129.125 31.7705 129.125 44.417 129.125C50.0463 129.125 55.6755 129.125 61.3047 129.125ZM151.604 200.586C156.848 213.383 162.245 226.103 167.489 238.822C168.415 241.058 169.571 242.292 172.116 241.058C174.429 239.979 176.126 238.822 174.892 235.816C169.494 222.865 164.173 209.837 158.698 196.809C158.236 195.73 156.925 194.959 156.462 194.496C151.681 194.728 150.062 196.963 151.604 200.586ZM97.5478 49.1833C95.62 44.5579 93.7693 39.9326 91.8414 35.3072C88.5256 27.3671 85.2097 19.504 81.8939 11.5638C80.6601 8.6344 78.7323 8.86566 76.2646 9.86782C73.7199 10.87 73.4886 12.4889 74.491 14.7244C75.5706 17.1913 76.5731 19.6581 77.5756 22.2021C81.8939 32.6091 86.1351 43.0932 90.6076 53.4232C91.0703 54.5024 93.1524 55.8129 94.1548 55.6588C95.8513 55.3504 97.3936 53.8857 98.8587 52.9606C98.2418 51.1105 97.9334 50.1083 97.5478 49.1833ZM92.227 193.186C91.7643 194.342 91.2245 195.498 90.7619 196.655C85.2868 209.914 79.7347 223.173 74.3368 236.51C73.9513 237.435 74.7995 239.516 75.6477 240.133C79.1178 242.523 80.6601 241.906 82.2794 237.897C87.446 225.486 92.6126 212.998 97.7791 200.586C99.1672 197.194 97.3165 194.573 93.5379 194.496C93.1524 194.111 92.6897 193.648 92.227 193.186ZM194.247 155.72C194.016 156.568 195.25 158.573 196.252 158.958C209.361 164.586 222.471 169.905 235.58 175.455C238.433 176.689 239.435 175.224 240.438 172.911C241.518 170.367 241.055 168.98 238.356 167.901C225.787 162.813 213.294 157.493 200.725 152.329C199.799 151.943 198.797 151.635 196.946 151.018C196.098 152.56 194.71 154.024 194.247 155.72ZM50.0463 151.712C36.7828 157.185 23.5965 162.658 10.3331 168.132C7.86551 169.134 8.01974 170.83 8.86798 172.834C9.71622 174.839 10.5645 176.766 13.2634 175.687C16.9648 174.222 20.5891 172.68 24.2906 171.138C33.8526 167.13 43.4146 163.198 52.8994 158.958C53.979 158.496 55.0586 156.414 54.9044 155.258C54.673 153.716 53.2079 152.251 52.4368 151.018C51.0487 151.403 50.5089 151.481 50.0463 151.712ZM171.345 9.40529C170.265 9.17402 168.183 10.4074 167.721 11.4867C162.168 24.4377 156.848 37.4657 151.373 50.4167C150.216 53.1148 151.064 54.3482 153.609 55.3504C156.308 56.4296 157.927 55.8129 159.084 53.1148C164.25 40.5493 169.417 28.0609 174.584 15.4953C174.892 14.6473 175.123 13.7994 175.586 12.1034C174.275 11.1783 172.964 9.71364 171.345 9.40529ZM8.63664 78.9397C8.48242 79.9418 9.87045 81.9461 11.0271 82.4087C23.8279 87.882 36.7828 93.1241 49.5836 98.5203C52.1283 99.5995 53.5163 99.0599 54.673 96.4389C56.1382 93.1241 54.5188 91.8135 51.8199 90.6572C39.4047 85.5693 26.9895 80.4044 14.5743 75.2394C13.7261 74.931 12.8779 74.6998 11.1814 74.1601C10.3331 75.6248 8.86798 77.1666 8.63664 78.9397ZM235.734 74.8539C222.625 80.3273 209.516 85.8006 196.329 91.2739C194.093 92.199 193.708 93.895 194.633 95.9764C195.558 98.1349 197.101 99.3683 199.491 98.3661C212.754 92.9699 226.095 87.5736 239.281 82.0232C240.13 81.6378 240.901 79.4793 240.669 78.4771C240.284 76.8583 238.896 75.5477 238.125 74.2372C236.737 74.6227 236.197 74.6998 235.734 74.8539Z" fill="#11191F"/>
</svg>
