<svg width="280" height="157" viewBox="0 0 280 157" fill="none" xmlns="http://www.w3.org/2000/svg">
<path d="M140 154.184C157.203 154.184 171.149 120.281 171.149 78.4595C171.149 36.6382 157.203 2.73535 140 2.73535C122.798 2.73535 108.852 36.6382 108.852 78.4595C108.852 120.281 122.798 154.184 140 154.184Z" stroke="#11191F" stroke-width="1.5" stroke-miterlimit="10"/>
<path d="M140 154.184C181.805 154.184 215.694 120.281 215.694 78.4595C215.694 36.6382 181.805 2.73535 140 2.73535C98.1959 2.73535 64.3066 36.6382 64.3066 78.4595C64.3066 120.281 98.1959 154.184 140 154.184Z" stroke="#11191F" stroke-width="1.5" stroke-miterlimit="10"/>
<path d="M140 154.184C201.597 154.184 251.531 120.281 251.531 78.4595C251.531 36.6382 201.597 2.73535 140 2.73535C78.4033 2.73535 28.4691 36.6382 28.4691 78.4595C28.4691 120.281 78.4033 154.184 140 154.184Z" stroke="#11191F" stroke-width="1.5" stroke-miterlimit="10"/>
<path d="M140 154.184C216.395 154.184 278.326 120.281 278.326 78.4595C278.326 36.6382 216.395 2.73535 140 2.73535C63.6053 2.73535 1.67493 36.6382 1.67493 78.4595C1.67493 120.281 63.6053 154.184 140 154.184Z" stroke="#11191F" stroke-width="1.5" stroke-miterlimit="10"/>
<path d="M278.326 78.4595H1.67493" stroke="#11191F" stroke-width="1.5" stroke-miterlimit="10"/>
</svg>
