<svg width="12" height="17" viewBox="0 0 12 17" fill="none" xmlns="http://www.w3.org/2000/svg">
<path fill-rule="evenodd" clip-rule="evenodd" d="M7.07692 7.04146L6.70769 9.03429L10.2154 9.53249L9.96923 10.4666L6.52308 9.96843C6.27692 10.778 6.15385 11.6499 5.84615 12.3972C5.53846 13.2691 5.23077 14.1409 4.86154 14.9505C4.36923 16.0092 3.50769 16.7565 2.33846 16.9433C1.66154 17.0679 0.923077 17.0056 0.369231 16.5697C0.184616 16.4451 0 16.196 0 16.0092C0 15.7601 0.123077 15.4487 0.307692 15.3242C0.430769 15.2619 0.738462 15.3242 0.923077 15.3864C1.10769 15.5733 1.29231 15.8224 1.41538 16.0715C1.78462 16.5697 2.27692 16.632 2.76923 16.2583C3.32308 15.7601 3.63077 15.0751 3.81539 14.39C4.18462 12.8954 4.55385 11.463 4.86154 9.96843V9.71932L1.6 9.22112L1.72308 8.28698L5.10769 8.78518L5.53846 6.85463L2.03077 6.29415L2.15385 5.29773L5.78462 5.79594C5.90769 5.42228 5.96923 5.1109 6.09231 4.79952C6.4 3.67856 6.70769 2.55759 7.44615 1.56117C8.18462 0.564759 9.04615 -0.0580001 10.3385 0.00427579C10.8923 0.00427579 11.4462 0.191104 11.8154 0.627035C11.8769 0.689311 12 0.813863 12 0.938415C12 1.18752 12 1.4989 11.8154 1.68573C11.5692 1.87255 11.2615 1.81028 11.0154 1.56117C10.8308 1.37435 10.7077 1.18752 10.5231 1.00069C10.1538 0.502483 9.6 0.440207 9.16923 0.876139C8.86154 1.18752 8.55385 1.62345 8.36923 2.05938C7.93846 3.36718 7.63077 4.73725 7.2 6.10732L10.5846 6.60553L10.3385 7.53966L7.07692 7.04146Z" fill="#717171"/>
</svg>
